<svg id="圖層_1" data-name="圖層 1" xmlns="http://www.w3.org/2000/svg" xmlns:xlink="http://www.w3.org/1999/xlink" viewBox="0 0 374.9 117.8"><defs><style>.cls-1{fill:url(#未命名漸層_2);}.cls-2{fill:#fff;}</style><linearGradient id="未命名漸層_2" x1="81.9" y1="592.38" x2="34.9" y2="510.96" gradientTransform="translate(0 -492.77)" gradientUnits="userSpaceOnUse"><stop offset="0" stop-color="#ac50ef"/><stop offset="0.47" stop-color="#7059fb"/><stop offset="1" stop-color="#2ecff6"/></linearGradient></defs><circle class="cls-1" cx="58.4" cy="58.9" r="47"/><path class="cls-2" d="M57.1,30.2a3.49,3.49,0,0,0-3.2,2.1L45.4,52.1a.55.55,0,0,1-.5.3H35.1a3.49,3.49,0,0,0-3.2,2.1l-1.4,3.4a.55.55,0,0,0,.5.8H41.8a.55.55,0,0,1,.5.8L33.8,79.3a.55.55,0,0,0,.5.8h4A3.49,3.49,0,0,0,41.5,78l6.7-15.8a5.8,5.8,0,0,1,5.3-3.5h8.2a.55.55,0,0,0,.5-.8l-1.4-3.4a3.39,3.39,0,0,0-3.2-2.1H53.2a.55.55,0,0,1-.5-.8l5.1-12a.57.57,0,0,1,1,0l9.3,21.8a.55.55,0,0,1-.5.8H54.9a3.49,3.49,0,0,0-3.2,2.1l-1.4,3.4a.55.55,0,0,0,.5.8h20a.55.55,0,0,1,.5.3l3.9,9.1A3.39,3.39,0,0,0,78.4,80h4a.55.55,0,0,0,.5-.8l-4.3-10a.55.55,0,0,1,.5-.8h6.6a.55.55,0,0,0,.5-.8l-1.4-3.4a3.39,3.39,0,0,0-3.2-2.1H76a.55.55,0,0,1-.5-.3L62.1,30.5a.55.55,0,0,0-.5-.3Z"/><path class="cls-2" d="M133,19.47l8.73,33h-6.93l-1.52-7h-8.78l-1.53,7h-6.93l8.73-33ZM132.13,40,128.94,25.2h-.09L125.66,40Z"/><path class="cls-2" d="M155.93,19.47a12,12,0,0,1,5.59,1.13,8.13,8.13,0,0,1,3.31,3.24,14.55,14.55,0,0,1,1.59,5.06,47.22,47.22,0,0,1,.42,6.61,46.13,46.13,0,0,1-.54,7.55,14.36,14.36,0,0,1-1.82,5.29,8,8,0,0,1-3.47,3.1,13,13,0,0,1-5.5,1H145v-33Zm-1.29,28.1a5.73,5.73,0,0,0,2.82-.6,4.15,4.15,0,0,0,1.68-2,11.52,11.52,0,0,0,.83-3.65q.21-2.27.21-5.64c0-1.88-.06-3.52-.18-4.94a12.26,12.26,0,0,0-.77-3.54,4.34,4.34,0,0,0-1.71-2.12,5.55,5.55,0,0,0-3-.72h-2.82v23.2Z"/><path class="cls-2" d="M181.48,43.87h.14l4.9-24.4h6.89l-7.58,33h-8.55l-7.58-33h7.12Z"/><path class="cls-2" d="M214.94,24.93H203.16v7.76h11.09v5.45H203.16V47H215.4v5.46H196.5v-33h18.44Z"/><path class="cls-2" d="M231.67,19.47a9.28,9.28,0,0,1,6.47,2.1c1.54,1.41,2.31,3.54,2.31,6.41a10,10,0,0,1-1.34,5.42A6.2,6.2,0,0,1,235,36.11v.09a6.07,6.07,0,0,1,3.65,1.62,6.81,6.81,0,0,1,1.43,4c.06.62.11,1.29.14,2s.06,1.53.09,2.42c.07,1.76.16,3.1.28,4a2.62,2.62,0,0,0,1.2,1.89v.28h-7.21a3.58,3.58,0,0,1-.64-1.6A15.78,15.78,0,0,1,233.7,49l-.18-6.33a5.24,5.24,0,0,0-1-3.05,3.56,3.56,0,0,0-3-1.11H226v14h-6.65v-33ZM228.8,33.89a5.47,5.47,0,0,0,3.7-1.13A4.87,4.87,0,0,0,233.79,29q0-4.57-4.62-4.58H226v9.52Z"/><path class="cls-2" d="M264.2,24.93H257V52.47h-6.65V24.93h-7.21V19.47H264.2Z"/><path class="cls-2" d="M268,19.47h6.65v33H268Z"/><path class="cls-2" d="M285.64,43.13a10.44,10.44,0,0,0,.19,2.1,3.6,3.6,0,0,0,.69,1.6,3.47,3.47,0,0,0,1.36,1,5.57,5.57,0,0,0,2.15.37,4.25,4.25,0,0,0,2.75-1A3.7,3.7,0,0,0,294,44.15a5.53,5.53,0,0,0-.3-1.92,3.79,3.79,0,0,0-1-1.45,6.74,6.74,0,0,0-1.82-1.18,25.43,25.43,0,0,0-2.8-1.09,22.85,22.85,0,0,1-3.83-1.62,10.44,10.44,0,0,1-2.71-2A7.49,7.49,0,0,1,280,32.11a11.41,11.41,0,0,1-.51-3.58q0-4.91,2.73-7.3a10.91,10.91,0,0,1,7.48-2.4,16.45,16.45,0,0,1,4.09.48A8.59,8.59,0,0,1,297,20.88a7.41,7.41,0,0,1,2.12,2.77,9.79,9.79,0,0,1,.77,4.05v.92H293.5a6.68,6.68,0,0,0-.83-3.63,3.09,3.09,0,0,0-2.78-1.27,4.57,4.57,0,0,0-1.85.33,3.06,3.06,0,0,0-1.17.85,2.78,2.78,0,0,0-.6,1.23,6.15,6.15,0,0,0-.17,1.43,4.75,4.75,0,0,0,.65,2.56A5.74,5.74,0,0,0,289.52,32l5.13,2.22a15.35,15.35,0,0,1,3.1,1.73,8.58,8.58,0,0,1,1.92,1.94,6.59,6.59,0,0,1,1,2.29,12.49,12.49,0,0,1,.28,2.77c0,3.49-1,6-3,7.61S293.08,53,289.48,53q-5.64,0-8.07-2.45t-2.42-7V42.16h6.65Z"/><path class="cls-2" d="M305.24,19.47h6.65v33h-6.65Z"/><path class="cls-2" d="M333.19,42.07h.1V19.47h6.1v33h-7.58l-8.14-23.11h-.09V52.47h-6.1v-33h7.67Z"/><path class="cls-2" d="M359.09,27.37a5.8,5.8,0,0,0-.67-1.77,4.36,4.36,0,0,0-1.17-1.35,2.88,2.88,0,0,0-1.74-.53c-1.6,0-2.76.9-3.46,2.68S351,31.15,351,35.28c0,2,.06,3.76.19,5.36a20.87,20.87,0,0,0,.67,4.09,5.76,5.76,0,0,0,1.39,2.58,3.11,3.11,0,0,0,2.33.91,3.2,3.2,0,0,0,1.32-.33,4.43,4.43,0,0,0,1.34-1,5.43,5.43,0,0,0,1-1.64,6.14,6.14,0,0,0,.41-2.33V39.57h-4.39V34.68h10.77V52.47h-4.9v-3h-.09a7.07,7.07,0,0,1-2.89,2.75,9.27,9.27,0,0,1-4,.81,10.17,10.17,0,0,1-5-1.07,7.23,7.23,0,0,1-3-3.28,16.69,16.69,0,0,1-1.46-5.47,67.25,67.25,0,0,1-.37-7.56,44.71,44.71,0,0,1,.53-7.3,14.42,14.42,0,0,1,1.83-5.25,8.32,8.32,0,0,1,3.42-3.16,11.76,11.76,0,0,1,5.31-1.06q5.44,0,7.86,2.7t2.4,7.74H359.3A9,9,0,0,0,359.09,27.37Z"/><path class="cls-2" d="M137.68,70.92h-7.21V98.47h-6.66V70.92H116.6V65.47h21.08Z"/><path class="cls-2" d="M141.51,65.47h6.66v33h-6.66Z"/><path class="cls-2" d="M163.79,65.47l4.71,23.29h.09l4.76-23.29h9.84v33h-6.1V72.13H177l-5.87,26.34H166l-5.87-26.34H160V98.47h-6.1v-33Z"/><path class="cls-2" d="M207,70.92H195.25v7.77h11.1v5.45h-11.1V93H207.5v5.46H188.6v-33H207Z"/><path class="cls-2" d="M240.82,70.92h-7.21V98.47H227V70.92h-7.2V65.47h21.07Z"/><path class="cls-2" d="M256.62,65.47a9.28,9.28,0,0,1,6.47,2.1q2.31,2.12,2.31,6.4a9.89,9.89,0,0,1-1.34,5.43,6.18,6.18,0,0,1-4.16,2.71v.09a6,6,0,0,1,3.65,1.62,6.88,6.88,0,0,1,1.44,4c.06.61.1,1.28.13,2s.07,1.53.1,2.42q.09,2.64.27,4a2.6,2.6,0,0,0,1.21,1.9v.28h-7.21a3.6,3.6,0,0,1-.65-1.6,18.24,18.24,0,0,1-.18-1.87l-.19-6.33a5.24,5.24,0,0,0-1-3,3.56,3.56,0,0,0-3-1.11H251v14h-6.65v-33Zm-2.86,14.42a5.45,5.45,0,0,0,3.69-1.13,4.84,4.84,0,0,0,1.3-3.82q0-4.57-4.62-4.57H251v9.52Z"/><path class="cls-2" d="M285.32,65.47l8.73,33h-6.93l-1.52-7h-8.78l-1.53,7h-6.93l8.73-33ZM284.44,86,281.25,71.2h-.09L278,86Z"/><path class="cls-2" d="M310.25,71.36a3.2,3.2,0,0,0-3.12-1.64,3.17,3.17,0,0,0-2.06.67,4.46,4.46,0,0,0-1.27,2.17,19.12,19.12,0,0,0-.64,3.93q-.2,2.43-.19,5.94a57.15,57.15,0,0,0,.26,6,13.29,13.29,0,0,0,.78,3.59,3.32,3.32,0,0,0,1.34,1.71,3.88,3.88,0,0,0,1.87.43,4.23,4.23,0,0,0,1.64-.3,2.78,2.78,0,0,0,1.32-1.2,7.92,7.92,0,0,0,.88-2.54,23.67,23.67,0,0,0,.32-4.32H318a29.43,29.43,0,0,1-.42,5.08,11.43,11.43,0,0,1-1.55,4.21A7.7,7.7,0,0,1,312.88,98a12.17,12.17,0,0,1-5.33,1,12.6,12.6,0,0,1-6-1.2,8.09,8.09,0,0,1-3.39-3.46,15.15,15.15,0,0,1-1.53-5.41,70.59,70.59,0,0,1,0-13.84,15.2,15.2,0,0,1,1.53-5.43,8.57,8.57,0,0,1,3.39-3.54,12.09,12.09,0,0,1,6-1.27A11.49,11.49,0,0,1,313.16,66a7.83,7.83,0,0,1,3.07,2.93,10.19,10.19,0,0,1,1.27,3.84,31.53,31.53,0,0,1,.26,3.86H311.1A12,12,0,0,0,310.25,71.36Z"/><path class="cls-2" d="M340.91,70.92H329.13v7.77h11.09v5.45H329.13V93h12.24v5.46h-18.9v-33h18.44Z"/></svg>