<svg width="165" height="21" viewBox="0 0 165 21" fill="none" xmlns="http://www.w3.org/2000/svg">
<path fill-rule="evenodd" clip-rule="evenodd" d="M10.7411 0.5327C10.2911 0.259214 9.75275 0.110354 9.18327 0.042848C4.82307 -0.469506 2.36169 3.74011 1.50661 5.87953C-0.0096768 9.67372 -0.279701 12.4709 0.2465 14.4857C0.78828 16.5628 2.15398 17.7 3.55084 18.0878L3.65123 18.1155L3.75509 18.1258C4.71921 18.2158 5.58641 18.1882 6.39994 17.9129C7.22906 17.6308 7.88854 17.1288 8.50129 16.4676C9.09673 15.8254 9.69216 14.9825 10.3793 13.9664C10.5922 13.6514 10.8155 13.3173 11.0527 12.9625C11.5979 12.1472 12.2193 11.2177 12.9688 10.1393L12.9844 10.1168L12.9982 10.0943C13.4258 9.41235 13.8256 8.8048 14.203 8.2509C14.6011 8.83942 15.0234 9.48851 15.4735 10.2051L15.4873 10.2276L15.5029 10.2501C16.2524 11.3268 16.8738 12.2563 17.419 13.0715C17.6562 13.4264 17.8794 13.7604 18.0924 14.0755C18.7778 15.0898 19.375 15.9328 19.9704 16.5767C20.5832 17.2379 21.2409 17.7398 22.0717 18.022C22.8836 18.2972 23.7525 18.3249 24.7166 18.2349L24.8205 18.2245L24.9209 18.1968C26.3177 17.8091 27.6817 16.6719 28.2252 14.5947C28.7514 12.5799 28.4814 9.78104 26.9651 5.98858C26.1117 3.86127 24.0035 -0.026389 19.4027 0.13978C18.7934 0.19517 18.191 0.359608 17.7375 0.62617C17.2805 0.896195 16.827 1.27181 16.3822 1.71146C15.7141 2.37094 15.0009 3.23814 14.248 4.27496C13.4829 3.21044 12.7611 2.31555 12.086 1.6353C11.6446 1.19045 11.1963 0.807918 10.7411 0.530969V0.5327ZM12.7715 6.22399C12.2384 6.98213 11.6689 7.83029 11.0406 8.83076C10.2859 9.91605 9.64716 10.8715 9.10192 11.6868C8.86824 12.0364 8.65188 12.3601 8.44936 12.6578C7.75699 13.6825 7.25156 14.3853 6.79286 14.8804C6.35321 15.3564 6.00702 15.5831 5.65045 15.7025C5.29561 15.8237 4.82653 15.8739 4.08396 15.8116C3.50237 15.6195 2.81519 15.1002 2.50017 13.8937C2.15225 12.5609 2.24226 10.3107 3.66854 6.74153C4.4388 4.81155 6.56611 1.48125 9.185 2.36921C9.18847 2.36921 9.29578 2.37614 9.53292 2.5198C9.77006 2.66347 10.0712 2.9058 10.4347 3.27449C11.0994 3.94436 11.8783 4.93272 12.7732 6.22052L12.7715 6.22399ZM15.6777 6.2863C16.2195 7.06176 16.8011 7.9428 17.4294 8.94327C18.1841 10.0286 18.8228 10.9823 19.368 11.7993C19.6017 12.1489 19.8181 12.4726 20.0189 12.7721C20.7112 13.7968 21.2167 14.4995 21.6754 14.9946C22.115 15.4706 22.4612 15.6973 22.8178 15.8168C23.1726 15.9379 23.6417 15.9881 24.3843 15.9258C24.9659 15.7337 25.653 15.2144 25.9681 14.008C26.316 12.6752 26.226 10.4249 24.7997 6.85578C24.0242 4.91541 21.1751 1.87244 19.2832 2.48345C19.2763 2.48345 19.1638 2.48865 18.9197 2.63405C18.6809 2.77598 18.3797 3.01139 18.0145 3.37315C17.3481 4.0309 16.5674 5.00368 15.6742 6.2863H15.6777ZM20.7268 6.69999C21.1855 6.69999 21.5577 6.32784 21.5577 5.86742C21.5577 5.40699 21.1855 5.03484 20.7268 5.03484C20.2681 5.03484 19.896 5.40699 19.896 5.86742C19.896 6.32784 20.2681 6.69999 20.7268 6.69999ZM21.5577 8.7546C21.5577 9.21503 21.1855 9.58718 20.7268 9.58718C20.2681 9.58718 19.896 9.21503 19.896 8.7546C19.896 8.29418 20.2681 7.92203 20.7268 7.92203C21.1855 7.92203 21.5577 8.29418 21.5577 8.7546ZM22.3902 8.14358C22.8489 8.14358 23.2211 7.77144 23.2211 7.31101C23.2211 6.85058 22.8489 6.47843 22.3902 6.47843C21.9315 6.47843 21.5594 6.85058 21.5594 7.31101C21.5594 7.77144 21.9315 8.14358 22.3902 8.14358ZM19.896 7.31101C19.896 7.77144 19.5238 8.14358 19.0651 8.14358C18.6064 8.14358 18.2343 7.77144 18.2343 7.31101C18.2343 6.85058 18.6064 6.47843 19.0651 6.47843C19.5238 6.47843 19.896 6.85058 19.896 7.31101ZM8.5861 5.14735H6.8119V6.47843H5.5916V8.03281L6.75651 7.92203L6.8119 9.58718H8.5861V8.03281H9.75102V6.47843H8.5861V5.14735Z" fill="url(#paint0_linear_131_2499)"/>
<path d="M43.6796 6.17037C43.4286 5.70821 43.0686 5.3551 42.5995 5.10931C42.1304 4.86525 41.5782 4.74236 40.9447 4.74236C39.8473 4.74236 38.968 5.10239 38.3085 5.82245C37.6473 6.54252 37.3167 7.50492 37.3167 8.70618C37.3167 9.9888 37.6629 10.9893 38.357 11.7093C39.0511 12.4294 40.0048 12.7894 41.2217 12.7894C42.0542 12.7894 42.7587 12.5783 43.3334 12.1542C43.9081 11.7318 44.327 11.1226 44.5918 10.3298H40.2904V7.83206H47.6659V10.9841C47.4149 11.8305 46.9891 12.6163 46.3868 13.3433C45.7844 14.0703 45.0228 14.6588 44.0967 15.1071C43.1707 15.5572 42.1269 15.7805 40.9638 15.7805C39.5894 15.7805 38.3639 15.4793 37.2855 14.8787C36.2089 14.278 35.3694 13.442 34.767 12.3706C34.1647 11.3008 33.8652 10.0771 33.8652 8.70272C33.8652 7.32836 34.1664 6.10287 34.767 5.0245C35.3677 3.94786 36.2037 3.10836 37.2752 2.506C38.3449 1.90537 39.5686 1.60419 40.943 1.60419C42.6081 1.60419 44.0119 2.00749 45.1561 2.8141C46.2985 3.62072 47.0566 4.73716 47.4253 6.16518H43.6779L43.6796 6.17037Z" fill="white"/>
<path d="M49.5162 7.14177C49.9455 6.28323 50.5305 5.62202 51.2714 5.15986C52.0122 4.6977 52.8378 4.46576 53.75 4.46576C54.529 4.46576 55.2144 4.625 55.8012 4.94176C56.3897 5.25852 56.8415 5.67568 57.16 6.19149V4.625H60.5491V15.6874H57.16V14.1209C56.8294 14.6367 56.3707 15.0521 55.7822 15.3706C55.1936 15.6874 54.5099 15.8466 53.731 15.8466C52.8327 15.8466 52.0122 15.6129 51.2731 15.1421C50.5323 14.673 49.9472 14.0049 49.5179 13.1394C49.0887 12.274 48.874 11.2735 48.874 10.1363C48.874 8.99906 49.0887 8.00204 49.5179 7.1435L49.5162 7.14177ZM56.4555 8.15263C55.9864 7.66451 55.4152 7.41872 54.7401 7.41872C54.0651 7.41872 53.4939 7.65932 53.0248 8.14225C52.5557 8.62518 52.3203 9.28812 52.3203 10.1345C52.3203 10.981 52.554 11.6508 53.0248 12.1459C53.4939 12.6409 54.0651 12.8884 54.7401 12.8884C55.4152 12.8884 55.9864 12.6444 56.4555 12.1545C56.9246 11.6664 57.16 10.9983 57.16 10.1519C57.16 9.30543 56.9246 8.63902 56.4555 8.14917V8.15263Z" fill="white"/>
<path d="M80.4031 5.75339C81.2166 6.58597 81.6217 7.74223 81.6217 9.22217V15.6854H78.2515V9.67913C78.2515 8.96599 78.0629 8.41383 77.6873 8.02437C77.3099 7.63491 76.7924 7.43931 76.1312 7.43931C75.4699 7.43931 74.9507 7.63491 74.5751 8.02437C74.1977 8.41383 74.0108 8.96599 74.0108 9.67913V15.6854H70.6407V9.67913C70.6407 8.96599 70.452 8.41383 70.0764 8.02437C69.699 7.63491 69.1815 7.43931 68.5203 7.43931C67.8591 7.43931 67.3415 7.63491 66.9642 8.02437C66.5868 8.41383 66.3999 8.96599 66.3999 9.67913V15.6854H63.0107V4.6231H66.3999V6.0113C66.7426 5.54914 67.1927 5.18219 67.7483 4.91043C68.3039 4.64041 68.9305 4.50366 69.6315 4.50366C70.4641 4.50366 71.2084 4.68195 71.861 5.03852C72.5153 5.39509 73.0276 5.90398 73.398 6.5652C73.7806 5.95764 74.3033 5.4626 74.9645 5.07833C75.6257 4.69579 76.3458 4.50366 77.1247 4.50366C78.4991 4.50366 79.593 4.92082 80.4048 5.75339H80.4031Z" fill="white"/>
<path d="M94.3697 10.9671H86.6982C86.7502 11.6543 86.9717 12.1805 87.3629 12.5422C87.7524 12.9057 88.2318 13.0875 88.7996 13.0875C89.6443 13.0875 90.2328 12.7309 90.5634 12.0178H94.1707C93.9854 12.7447 93.6514 13.399 93.1702 13.9806C92.6872 14.5622 92.0832 15.0174 91.3562 15.3481C90.6292 15.6787 89.8156 15.8431 88.9173 15.8431C87.8337 15.8431 86.8679 15.6129 86.0232 15.149C85.1768 14.6868 84.5173 14.0256 84.0413 13.1671C83.5653 12.3085 83.3281 11.3029 83.3281 10.1535C83.3281 9.00421 83.5635 8.00027 84.0326 7.14C84.5017 6.28146 85.1594 5.62025 86.0059 5.15809C86.8523 4.69593 87.8233 4.46399 88.9207 4.46399C90.0182 4.46399 90.9425 4.68901 91.775 5.13732C92.6076 5.58736 93.2585 6.2278 93.7275 7.06038C94.1966 7.89295 94.432 8.864 94.432 9.97526C94.432 10.292 94.413 10.6226 94.3732 10.9671H94.3697ZM90.9598 9.08383C90.9598 8.50224 90.7607 8.04008 90.3643 7.69563C89.968 7.35291 89.4729 7.17981 88.8775 7.17981C88.282 7.17981 87.8303 7.34598 87.4408 7.67486C87.0513 8.00546 86.809 8.47455 86.7173 9.0821H90.9598V9.08383Z" fill="white"/>
<path d="M100.971 4.94176C101.553 4.625 102.233 4.46576 103.014 4.46576C103.926 4.46576 104.752 4.6977 105.493 5.15986C106.232 5.62202 106.817 6.28323 107.246 7.14177C107.675 8.00031 107.89 8.99905 107.89 10.1345C107.89 11.27 107.675 12.2722 107.246 13.1377C106.817 14.0032 106.232 14.6713 105.493 15.1404C104.752 15.6095 103.926 15.8449 103.014 15.8449C102.247 15.8449 101.57 15.6856 100.982 15.3689C100.393 15.0521 99.9346 14.6419 99.604 14.1399V20.9598H96.2148V4.62327H99.604V6.18976C99.9346 5.67395 100.39 5.25852 100.971 4.94003V4.94176ZM103.736 8.14225C103.267 7.65932 102.689 7.41872 102.001 7.41872C101.314 7.41872 100.755 7.66278 100.286 8.15263C99.8169 8.64248 99.5815 9.30889 99.5815 10.1553C99.5815 11.0017 99.8169 11.6681 100.286 12.158C100.755 12.6478 101.326 12.8919 102.001 12.8919C102.676 12.8919 103.251 12.6444 103.725 12.1493C104.201 11.6543 104.438 10.9827 104.438 10.138C104.438 9.29331 104.203 8.62864 103.734 8.14571L103.736 8.14225Z" fill="white"/>
<path d="M109.644 7.14177C110.073 6.28323 110.658 5.62202 111.399 5.15986C112.138 4.6977 112.966 4.46576 113.878 4.46576C114.657 4.46576 115.342 4.625 115.929 4.94176C116.518 5.25852 116.969 5.67568 117.288 6.19149V4.625H120.677V15.6874H117.288V14.1209C116.957 14.6367 116.499 15.0521 115.91 15.3706C115.322 15.6891 114.638 15.8466 113.859 15.8466C112.961 15.8466 112.14 15.6129 111.401 15.1421C110.66 14.673 110.075 14.0049 109.646 13.1394C109.217 12.274 109.002 11.2735 109.002 10.1363C109.002 8.99906 109.217 8.00204 109.646 7.1435L109.644 7.14177ZM116.583 8.15263C116.114 7.66451 115.543 7.41872 114.868 7.41872C114.193 7.41872 113.622 7.65932 113.153 8.14225C112.684 8.62518 112.448 9.28812 112.448 10.1345C112.448 10.981 112.682 11.6508 113.153 12.1459C113.622 12.6409 114.193 12.8884 114.868 12.8884C115.543 12.8884 116.114 12.6444 116.583 12.1545C117.052 11.6664 117.288 10.9983 117.288 10.1519C117.288 9.30543 117.052 8.63902 116.583 8.14917V8.15263Z" fill="white"/>
<path d="M123.105 7.14156C123.534 6.28302 124.119 5.6218 124.86 5.15965C125.599 4.69749 126.426 4.46555 127.339 4.46555C128.066 4.46555 128.729 4.61787 129.331 4.92078C129.932 5.22542 130.404 5.63392 130.749 6.14974V1.01581H134.138V15.6854H130.749V14.0999C130.432 14.6295 129.978 15.0519 129.39 15.3687C128.801 15.6854 128.118 15.8447 127.339 15.8447C126.426 15.8447 125.601 15.611 124.86 15.1402C124.119 14.6711 123.534 14.003 123.105 13.1375C122.676 12.272 122.461 11.2715 122.461 10.1343C122.461 8.99711 122.676 8.0001 123.105 7.14156ZM130.042 8.15242C129.573 7.6643 129.002 7.41851 128.327 7.41851C127.652 7.41851 127.081 7.65911 126.612 8.14203C126.143 8.62496 125.907 9.28791 125.907 10.1343C125.907 10.9808 126.141 11.6506 126.612 12.1457C127.081 12.6407 127.652 12.8882 128.327 12.8882C129.002 12.8882 129.573 12.6442 130.042 12.1543C130.511 11.6662 130.747 10.9981 130.747 10.1516C130.747 9.30522 130.511 8.63881 130.042 8.14896V8.15242Z" fill="white"/>
<path d="M136.722 15.3184C136.345 14.9687 136.158 14.536 136.158 14.0202C136.158 13.5044 136.347 13.0491 136.722 12.6926C137.1 12.336 137.584 12.1577 138.18 12.1577C138.775 12.1577 139.241 12.336 139.617 12.6926C139.994 13.0491 140.181 13.4923 140.181 14.0202C140.181 14.5481 139.992 14.9687 139.617 15.3184C139.239 15.668 138.762 15.8446 138.18 15.8446C137.598 15.8446 137.1 15.6698 136.722 15.3184Z" fill="white"/>
<path d="M142.214 7.14177C142.683 6.28323 143.338 5.62202 144.177 5.15986C145.017 4.6977 145.977 4.46576 147.061 4.46576C148.449 4.46576 149.609 4.82925 150.54 5.55624C151.471 6.28323 152.082 7.30794 152.373 8.62864H148.766C148.461 7.78221 147.874 7.35987 147.002 7.35987C146.381 7.35987 145.886 7.60047 145.515 8.0834C145.145 8.56632 144.96 9.25696 144.96 10.1553C144.96 11.0537 145.145 11.7443 145.515 12.2272C145.886 12.7102 146.381 12.9508 147.002 12.9508C147.874 12.9508 148.463 12.5284 148.766 11.682H152.373C152.082 12.9767 151.468 13.9945 150.53 14.7353C149.591 15.4762 148.435 15.8449 147.061 15.8449C145.977 15.8449 145.015 15.6147 144.177 15.1508C143.338 14.6886 142.683 14.0274 142.214 13.1689C141.745 12.3103 141.51 11.3046 141.51 10.1553C141.51 9.00598 141.745 8.00204 142.214 7.14177Z" fill="white"/>
<path d="M156.29 15.1508C155.424 14.6886 154.744 14.0274 154.247 13.1689C153.752 12.3103 153.503 11.3046 153.503 10.1553C153.503 9.00598 153.754 8.01762 154.256 7.15216C154.758 6.28669 155.445 5.62202 156.317 5.15986C157.19 4.6977 158.168 4.46576 159.251 4.46576C160.335 4.46576 161.313 4.6977 162.185 5.15986C163.058 5.62202 163.745 6.28669 164.247 7.15216C164.749 8.01762 165 9.01983 165 10.1553C165 11.2908 164.745 12.293 164.236 13.1585C163.728 14.0239 163.033 14.6886 162.154 15.1508C161.275 15.6129 160.293 15.8449 159.21 15.8449C158.126 15.8449 157.152 15.6147 156.286 15.1508H156.29ZM160.868 12.1978C161.323 11.7218 161.552 11.0415 161.552 10.1553C161.552 9.26908 161.33 8.58883 160.887 8.11282C160.444 7.63682 159.899 7.39968 159.251 7.39968C158.604 7.39968 158.041 7.63509 157.605 8.10417C157.169 8.57325 156.951 9.25696 156.951 10.1553C156.951 11.0537 157.166 11.7218 157.595 12.1978C158.024 12.6738 158.562 12.9109 159.21 12.9109C159.857 12.9109 160.409 12.6738 160.865 12.1978H160.868Z" fill="white"/>
<defs>
<linearGradient id="paint0_linear_131_2499" x1="0.639421" y1="9.04886" x2="26.8595" y2="9.21503" gradientUnits="userSpaceOnUse">
<stop stop-color="#03CD9A"/>
<stop offset="0.3" stop-color="#2E8AF9"/>
<stop offset="0.71" stop-color="#F56FD6"/>
<stop offset="1" stop-color="#FB184A"/>
</linearGradient>
</defs>
</svg>
