<svg xmlns="http://www.w3.org/2000/svg" fill="none" viewBox="9.36 0 120.9 40.12987012987013" style="max-height: 500px" width="120.9" height="40.12987012987013">
<mask height="38" width="32" y="1" x="9" maskUnits="userSpaceOnUse" style="mask-type:luminance" id="mask0_2199_54749">
<path fill="white" d="M25.4534 27.3119C26.8367 26.8089 28.4078 26.1014 30.0501 25.1012C31.829 24.0129 33.292 22.8194 34.4732 21.6856C34.5045 21.6572 34.5301 21.6288 34.5614 21.6004C34.5529 21.6544 34.5415 21.7112 34.533 21.7623C34.5159 21.8561 34.5017 21.9499 34.4817 22.038C34.4561 22.1602 34.4277 22.2767 34.3992 22.3875C34.3821 22.4557 34.3622 22.5239 34.348 22.5892C34.3423 22.6006 34.3423 22.6148 34.3366 22.6262C34.3195 22.6887 34.2996 22.7484 34.2853 22.8052C34.1857 23.132 34.0861 23.4076 34.0007 23.615C33.9637 23.706 33.9296 23.7855 33.9011 23.8509C33.8926 23.8736 33.8812 23.8935 33.8726 23.9134V23.9191C33.8641 23.9418 33.8527 23.9646 33.8442 23.9844C33.8186 24.0384 33.7929 24.0953 33.7645 24.1464C33.7389 24.2032 33.7104 24.2572 33.6819 24.3141C33.6449 24.3908 33.6079 24.4647 33.5652 24.5357C33.4685 24.709 33.3717 24.8738 33.2692 25.0273C33.2237 25.104 33.1696 25.1807 33.1184 25.2518C33.07 25.3228 33.0216 25.3939 32.9675 25.4649C32.9191 25.5302 32.8679 25.6013 32.8138 25.6638C32.7654 25.7292 32.7142 25.7888 32.663 25.8485C32.2645 26.3316 31.8945 26.6811 31.6469 26.9169C31.6383 26.9254 31.6298 26.934 31.6212 26.9397C30.5624 28.0109 29.5008 29.0822 28.4534 30.1392C27.3889 31.2134 26.3386 32.2733 25.3282 33.2934C25.2912 33.3332 25.2485 33.3644 25.2058 33.3871C25.146 33.4212 25.0834 33.4411 25.0208 33.4497C24.9211 33.4639 24.8215 33.444 24.7304 33.3985C24.6821 33.3729 24.6337 33.3388 24.5938 33.2962C23.2789 31.9721 21.9952 30.6109 20.6688 29.2981C19.8861 28.5281 19.0209 27.7836 18.2381 26.9823C18.2239 26.9681 18.2097 26.9567 18.1954 26.9397C18.0161 26.7663 17.8283 26.5674 17.6319 26.3344C17.5721 26.2662 17.5095 26.1923 17.4469 26.1184C17.4156 26.0787 17.3814 26.036 17.3473 25.9934C17.2192 25.84 17.0996 25.6837 16.9829 25.5217C16.8605 25.3512 16.7438 25.1722 16.6528 24.9818C16.6471 24.9761 16.6442 24.9676 16.6414 24.9591C16.5845 24.8397 16.5389 24.7176 16.5048 24.5897C16.2742 23.7003 16.9289 22.7342 17.8055 22.5608C18.2894 22.4671 18.7533 22.5864 19.1091 22.845C19.1973 22.9075 19.2827 22.9814 19.3539 23.0609C19.3596 23.0609 19.3596 23.0666 19.3596 23.0695C20.3614 23.9447 21.406 24.8227 22.4933 25.6979C23.1052 26.1895 23.7143 26.6697 24.3177 27.1329C24.5341 27.2977 24.7931 27.3829 25.0549 27.3829C25.1915 27.3829 25.331 27.3602 25.4676 27.3119M24.3377 25.7121C22.8633 24.6693 21.0929 22.9331 19.9658 21.3617C19.4421 20.5945 19.4421 19.5204 19.9658 18.756C21.0929 17.1818 22.8633 15.4456 24.3377 14.4027C24.6735 14.1669 25.1773 14.1669 25.5132 14.4027C26.9847 15.4456 28.7579 17.1818 29.885 18.756C30.4116 19.5204 30.4116 20.5945 29.885 21.3617C28.7579 22.9331 26.9875 24.6693 25.5132 25.7121C25.3424 25.8314 25.1346 25.8883 24.924 25.8883C24.7134 25.8883 24.5056 25.8286 24.3377 25.7121ZM15.2126 19.3129C15.2126 19.2902 15.2126 19.2646 15.2183 19.239C15.2183 19.2021 15.2239 19.1623 15.2296 19.1197C15.2553 18.8213 15.2951 18.54 15.3463 18.2729C15.3776 18.1081 15.409 17.9518 15.446 17.8012C15.4801 17.6506 15.52 17.5057 15.5598 17.3693C15.5769 17.3125 15.5911 17.2556 15.611 17.2016C15.6224 17.1562 15.6367 17.1107 15.6537 17.0681C15.685 16.9686 15.7163 16.8806 15.7505 16.7896C15.8387 16.5509 15.9241 16.3407 16.0067 16.1588C16.408 15.2779 16.9516 14.4652 17.6461 13.7691C19.0721 12.3341 20.4781 10.919 21.6707 9.71699C22.98 8.39851 24.0331 7.3443 24.5597 6.81577C24.5824 6.79304 24.6081 6.7703 24.6337 6.75325C24.6564 6.7362 24.6792 6.722 24.702 6.71347C24.7105 6.70779 24.7219 6.70211 24.7304 6.69926C24.7504 6.69074 24.776 6.67937 24.7959 6.67653C24.8244 6.66801 24.8557 6.66516 24.8813 6.66232C24.9468 6.65664 25.0151 6.66232 25.0777 6.68505C25.1375 6.70495 25.1887 6.73336 25.2399 6.77314C25.257 6.78735 25.2741 6.80156 25.2883 6.81861L30.349 11.9505C31.311 12.9279 32.4153 13.8912 33.2095 15.0421C33.2151 15.0534 33.2237 15.0648 33.2294 15.0762C33.2493 15.1046 33.2664 15.133 33.2863 15.1643C33.3945 15.3205 33.4912 15.4825 33.5823 15.6502C33.6392 15.7496 33.6876 15.8576 33.7332 15.9656C33.7332 15.9713 33.7389 15.9769 33.7389 15.9826C34.1658 17.0482 34.032 18.432 32.7114 18.6849C32.1876 18.7872 31.6981 18.6423 31.3309 18.344C31.2398 18.2672 31.1545 18.182 31.0804 18.0882C30.4543 17.4545 29.8082 16.8209 29.145 16.1844C28.0435 15.133 26.9505 14.1385 25.8661 13.1922C25.5473 12.9137 25.109 12.8228 24.7105 12.9478C22.3567 13.6753 19.9544 14.8659 17.7856 16.7754C16.8378 17.608 16.0351 18.4917 15.3549 19.3811C15.2951 19.455 15.2382 19.5289 15.1869 19.5999C15.1926 19.5033 15.1955 19.4067 15.204 19.3129M24.349 1.82316C23.3272 2.72677 21.0445 4.74712 18.2865 7.19085C16.8036 8.50649 15.1784 9.94432 13.539 11.3964C13.4678 11.4589 13.3995 11.5214 13.334 11.5811C12.372 12.479 11.5978 13.4991 11.02 14.6016C10.9887 14.6585 10.9602 14.7124 10.9346 14.7693C10.9147 14.8062 10.8663 14.9057 10.798 15.0563C10.7866 15.0818 10.7724 15.1074 10.761 15.1358C10.7382 15.187 10.7126 15.2438 10.687 15.3035C10.4878 15.7468 10.3198 16.1986 10.1832 16.6589C10.1775 16.6674 10.1747 16.6788 10.1747 16.6873C9.92706 17.5313 9.77336 18.3979 9.71928 19.2703C9.71074 19.4209 9.7022 19.5715 9.69936 19.7221C9.68228 20.3615 9.71928 21.0008 9.81036 21.6373C9.82459 21.7425 9.84167 21.8504 9.86159 21.9613C9.88436 22.0948 9.91283 22.2312 9.94129 22.3676C10.2373 23.8026 10.8066 25.1893 11.6519 26.4424C11.7942 26.6555 11.9451 26.8601 12.1044 27.0618C12.2638 27.2636 12.4005 27.4284 12.5058 27.5506C12.5855 27.6415 12.6652 27.7296 12.742 27.812C12.8046 27.8774 12.8644 27.9427 12.927 28.0081C12.9469 28.0308 12.9669 28.0507 12.9896 28.0706C13.075 28.1558 13.1576 28.2382 13.2458 28.3235C13.3312 28.4059 13.4223 28.4855 13.5105 28.5679L24.3946 38.2888C24.7219 38.5843 25.2172 38.5872 25.5473 38.2945C28.9941 35.2313 32.7085 31.9266 36.3517 28.6844C37.0547 28.0592 37.6582 27.3659 38.1648 26.6271C38.1762 26.61 38.1876 26.593 38.2018 26.5788C39.3545 24.8824 40.0035 22.9331 40.1486 20.9582C40.1828 20.5149 40.1885 20.0716 40.1686 19.6312C40.0661 17.0823 39.1325 14.5675 37.365 12.5443C37.0576 12.1891 36.7246 11.8538 36.3659 11.5327L25.5046 1.83736C25.3395 1.6896 25.1346 1.61572 24.9268 1.61572C24.7191 1.61572 24.5198 1.6896 24.3547 1.83452"/>
</mask>
<g mask="url(#mask0_2199_54749)">
<path fill="url(#paint0_linear_2199_54749)" d="M40.1513 0.692548L8.56641 1.63943L9.70503 39.4946L41.29 38.5477L40.1513 0.692548Z"/>
</g>
<mask height="33" width="32" y="1" x="9" maskUnits="userSpaceOnUse" style="mask-type:luminance" id="mask1_2199_54749">
<path fill="white" d="M24.3471 1.82314C23.3253 2.72675 21.0426 4.7471 18.2845 7.19083C16.8016 8.50647 15.1764 9.9443 13.537 11.3963C11.8719 12.8711 11.3824 13.8855 10.9327 14.7664C10.833 14.9568 9.82547 16.9658 9.72016 19.0259C9.4583 24.1464 14.8463 28.1615 16.8244 29.6363C18.3358 30.7644 20.9486 32.4096 24.7228 33.3928C24.6744 33.3672 24.626 33.3331 24.5862 33.2905C23.2712 31.9663 21.9875 30.6052 20.6612 29.2924C19.8785 28.5224 19.0132 27.7779 18.2276 26.9766C18.2134 26.9624 18.1992 26.951 18.1849 26.934C18.0085 26.7606 17.8178 26.5617 17.6214 26.3287C17.5616 26.2605 17.499 26.1866 17.4364 26.1127C17.4051 26.073 17.3709 26.0303 17.3367 25.9877C17.2087 25.8343 17.0891 25.678 16.9724 25.516C16.85 25.3455 16.7333 25.1665 16.6423 24.9761C16.6366 24.9704 16.6337 24.9619 16.6309 24.9534C16.4487 24.655 16.2751 24.3282 16.1129 23.9759C15.1366 21.8533 15.1821 19.9892 15.1964 19.5971C15.202 19.5004 15.2049 19.4038 15.2134 19.3101C15.2134 19.2873 15.2134 19.2618 15.2191 19.2362C15.2191 19.1992 15.2248 19.1595 15.2305 19.1168C15.2561 18.8185 15.296 18.5372 15.3472 18.2701C15.3785 18.1052 15.4098 17.949 15.4468 17.7984C15.481 17.6478 15.5208 17.5028 15.5635 17.3664C15.5806 17.3096 15.5948 17.2528 15.6148 17.1988C15.6261 17.1533 15.6404 17.1079 15.6575 17.0652C15.6916 16.9658 15.7201 16.8777 15.7542 16.7868C15.8425 16.5481 15.9307 16.3378 16.0132 16.1559C16.4146 15.2751 16.9582 14.4624 17.6527 13.7662C19.0787 12.3312 20.4847 10.9161 21.6773 9.71413C22.9894 8.39565 24.0397 7.34143 24.5662 6.81291C24.6602 6.71913 24.774 6.66799 24.8907 6.65946C24.8907 6.65946 24.9932 6.63389 25.0871 6.68504C29.4931 9.01511 35.7634 13.6184 35.7634 13.6184C36.7511 14.4936 37.5594 15.2324 38.419 16.4259C39.3241 17.679 39.8592 18.844 40.1694 19.6226C40.141 18.5542 39.9417 16.5168 38.7235 14.3856C37.955 13.0388 37.0442 12.1096 36.3611 11.5242L25.5027 1.82882C25.3376 1.68106 25.1326 1.60718 24.9249 1.60718C24.7171 1.60718 24.5179 1.68106 24.3528 1.82598"/>
</mask>
<g mask="url(#mask1_2199_54749)">
<path fill="url(#paint1_linear_2199_54749)" d="M37.1609 -7.50369L0 4.71555L12.4656 42.5006L49.6266 30.2814L37.1609 -7.50369Z"/>
</g>
<mask height="33" width="32" y="6" x="9" maskUnits="userSpaceOnUse" style="mask-type:luminance" id="mask2_2199_54749">
<path fill="white" d="M30.3532 11.9533C31.3152 12.9308 32.4196 13.8941 33.2137 15.0449C33.2194 15.0563 33.2279 15.0676 33.2336 15.079C33.2535 15.1074 33.2706 15.1358 33.2905 15.1671C33.3987 15.3234 33.4955 15.4853 33.5894 15.653C33.6463 15.7524 33.6947 15.8604 33.7403 15.9684C33.7403 15.9741 33.7459 15.9798 33.7459 15.9855C33.8114 16.119 33.8769 16.2611 33.9423 16.4145C34.9328 18.7332 34.6824 20.8587 34.56 21.6004C34.5514 21.6544 34.54 21.7083 34.5315 21.7623C34.5144 21.8561 34.4974 21.9499 34.4803 22.038C34.4547 22.1602 34.4262 22.2767 34.3977 22.3875C34.3807 22.4557 34.3636 22.5239 34.3465 22.5892C34.3408 22.6006 34.3408 22.6148 34.3351 22.6262C34.318 22.6887 34.2981 22.7484 34.2839 22.8052C34.1843 23.132 34.0846 23.4076 33.9993 23.615C33.9623 23.706 33.931 23.7855 33.8996 23.8509C33.8911 23.8736 33.8797 23.8935 33.8712 23.9134V23.9191C33.8626 23.9418 33.8513 23.9645 33.8427 23.9844C33.8171 24.0384 33.7915 24.0953 33.763 24.1464C33.7374 24.2032 33.7089 24.2572 33.6776 24.3141C33.6406 24.3908 33.6036 24.4647 33.5609 24.5357C33.4642 24.709 33.3674 24.8738 33.2649 25.0273C33.2194 25.104 33.1653 25.1807 33.1141 25.2518C33.0657 25.3228 33.0173 25.3938 32.9632 25.4649C32.9148 25.5302 32.8636 25.6013 32.8095 25.6638C32.7611 25.7291 32.7099 25.7888 32.6587 25.8485C32.2602 26.3316 31.8902 26.6811 31.6426 26.9169C31.634 26.9254 31.6255 26.934 31.6169 26.9396C30.5581 28.0109 29.4965 29.0822 28.4491 30.1392C27.3846 31.2133 26.3343 32.2732 25.3239 33.2934C25.2869 33.3331 25.2442 33.3644 25.1986 33.3871C25.1389 33.4241 25.0762 33.4411 25.0136 33.4496C24.914 33.4639 24.8144 33.444 24.7233 33.3985C21.527 32.5006 19.1503 31.1991 17.6105 30.1989C15.5726 28.8804 14.2804 27.6273 13.7794 27.1215C12.4787 25.8115 10.9616 24.2487 10.1448 21.7538C9.8573 20.8701 9.73206 20.1085 9.67514 19.6028C9.65237 20.5774 9.7406 21.9073 10.2017 23.3934C10.8791 25.5757 12.0205 26.9993 12.4986 27.5506C12.8886 27.9967 13.2443 28.3377 13.5034 28.565L24.3903 38.286C24.7176 38.5815 25.2129 38.5843 25.5402 38.2917C28.3011 35.8479 30.2877 34.7965 36.3446 28.6815C37.2098 27.8063 38.3797 26.6697 39.2364 24.7431C39.5466 24.0469 40.1216 22.7199 40.1415 20.9553C40.1699 18.5883 39.1851 16.855 38.6557 15.9514C38.5817 15.8263 38.502 15.6985 38.502 15.6985C38.1206 15.15 37.5059 14.3317 36.6349 13.4508C35.0609 11.8595 33.5439 10.9644 31.7735 9.91873C30.3504 9.07763 29.2005 8.52921 28.543 8.21664C27.2935 7.62276 26.1863 7.16527 25.2897 6.82428L30.3504 11.9561L30.3532 11.9533Z"/>
</mask>
<g mask="url(#mask2_2199_54749)">
<path fill="url(#paint2_linear_2199_54749)" d="M40.1609 6.17321L8.98438 6.83606L9.67541 39.231L40.8519 38.5681L40.1609 6.17321Z"/>
</g>
<path fill="#041A6F" d="M60.0181 10.9957V16.4884H51.7498V10.9957H48.4766V25.8172H51.7498V19.2362H60.0181V25.8172H63.2913V10.9957H60.0181Z"/>
<path fill="#041A6F" d="M81.8361 10.9957L78.2442 16.1502L74.6294 10.9957H70.582L76.4937 19.0572V25.8172H79.7669V19.0572L85.653 10.9957H81.8361Z"/>
<path fill="#041A6F" d="M104.283 19.85C106.099 19.0572 107.285 17.5796 107.285 15.6729C107.285 14.4936 106.83 13.4252 106.056 12.6097C105.102 11.6123 103.716 10.9985 101.602 10.9985H92.9375V13.7463H101.713C102.307 13.7463 102.965 13.8145 103.489 14.38C103.827 14.7238 104.012 15.1756 104.012 15.6757C104.012 16.8124 103.079 17.6279 101.94 17.6279H92.9375V25.8201H96.1879V20.3728H101.035L104.035 25.8201H107.764L104.286 19.8528L104.283 19.85Z"/>
<path fill="#041A6F" d="M123.985 10.9957H121.187L115.176 25.8172H118.608L122.519 15.5081H122.656L126.43 25.8172H129.999L123.985 10.9957Z"/>
<path fill="#041A6F" d="M59.9297 28.9344H60.5872L64.5122 33.9185V28.9344H65.1981V35.1546H64.6374L60.6128 30.054V35.1546H59.9297V28.9344Z"/>
<path fill="#041A6F" d="M68.7461 28.9344H73.2489V29.5737H69.4491V31.6964H72.8504V32.3386H69.4491V34.5152H73.2944V35.1546H68.7461V28.9344Z"/>
<path fill="#041A6F" d="M78.1389 29.5823H76.0469V28.9344H80.9453V29.5823H78.8533V35.1546H78.1389V29.5823Z"/>
<path fill="#041A6F" d="M83.5586 28.9344H84.3242L86.106 34.1146L87.8137 28.9145H88.3915L90.1021 34.1146L91.8811 28.9344H92.6211L90.3953 35.2H89.8004L88.0898 30.1506L86.3707 35.2H85.7844L83.5586 28.9344Z"/>
<path fill="#041A6F" d="M95.3984 32.063V32.0459C95.3984 30.3296 96.6878 28.8293 98.5862 28.8293C100.485 28.8293 101.754 30.3126 101.754 32.0289V32.0459C101.754 33.7622 100.465 35.2626 98.5663 35.2626C96.6679 35.2626 95.3984 33.7793 95.3984 32.063ZM101.023 32.063V32.0459C101.023 30.6337 99.9894 29.4772 98.5663 29.4772C97.1432 29.4772 96.1271 30.6138 96.1271 32.0289V32.0459C96.1271 33.4582 97.1603 34.6147 98.5834 34.6147C100.007 34.6147 101.023 33.4781 101.023 32.0658"/>
<path fill="#041A6F" d="M105.022 28.9344H107.701C108.475 28.9344 109.081 29.1646 109.471 29.5567C109.781 29.8664 109.952 30.2841 109.952 30.7842V30.8013C109.952 31.8328 109.241 32.4465 108.261 32.6142L110.174 35.1546H109.312L107.504 32.7364H105.723V35.1546H105.02V28.9344H105.022ZM107.638 32.1056C108.563 32.1056 109.241 31.6253 109.241 30.8269V30.8098C109.241 30.0369 108.654 29.5823 107.647 29.5823H105.723V32.1056H107.635H107.638Z"/>
<path fill="#041A6F" d="M113.238 28.9344H113.941V32.6483L117.519 28.9344H118.427L115.757 31.6538L118.544 35.1546H117.661L115.268 32.1425L113.941 33.4837V35.1546H113.238V28.9344Z"/>
<defs>
<linearGradient gradientUnits="userSpaceOnUse" y2="19.7314" x2="4.65304" y1="18.8111" x1="35.2493" id="paint0_linear_2199_54749">
<stop stop-color="#7B17E7"/>
<stop stop-color="#5538D8" offset="0.51"/>
<stop stop-color="#2C10BD" offset="1"/>
</linearGradient>
<linearGradient gradientUnits="userSpaceOnUse" y2="15.7864" x2="25.1178" y1="0.456463" x1="20.077" id="paint1_linear_2199_54749">
<stop stop-color="#7B17E7"/>
<stop stop-color="#5538D8" offset="0.51"/>
<stop stop-color="#2E3BD7" offset="1"/>
</linearGradient>
<linearGradient gradientUnits="userSpaceOnUse" y2="19.7673" x2="25.0072" y1="45.9674" x1="25.5642" id="paint2_linear_2199_54749">
<stop stop-color="#00C2D2"/>
<stop stop-color="#1499EE" offset="0.51"/>
<stop stop-color="#3C17C3" offset="1"/>
</linearGradient>
</defs>
</svg>