<svg width="210" height="71" viewBox="0 0 210 71" fill="none" xmlns="http://www.w3.org/2000/svg">
<g clip-path="url(#clip0_2344_54910)">
<path d="M58.3305 34.4207C58.1405 29.5807 56.3705 24.8107 53.0205 20.9707C52.4405 20.3007 51.8005 19.6607 51.1305 19.0507L30.5505 0.650713C29.9305 0.0907129 29.0005 0.0907129 28.3705 0.650713C26.4305 2.36071 22.1105 6.20071 16.8805 10.8407C14.0705 13.3307 10.9905 16.0607 7.8905 18.8207C7.7605 18.9407 7.6305 19.0507 7.5005 19.1707C5.6805 20.8707 4.2105 22.8107 3.1105 24.9007C3.0505 25.0107 3.0005 25.1107 2.9505 25.2207C2.9105 25.2907 2.8205 25.4807 2.6905 25.7707C2.6705 25.8207 2.6405 25.8707 2.6205 25.9207C2.5805 26.0207 2.5305 26.1307 2.4805 26.2407C2.1005 27.0807 1.7805 27.9407 1.5205 28.8107C1.5205 28.8307 1.5105 28.8507 1.5005 28.8607C1.0305 30.4607 0.7405 32.1107 0.6405 33.7607C0.6205 34.0407 0.6105 34.3307 0.6005 34.6207C0.5705 35.8307 0.6405 37.0507 0.8105 38.2507C0.8405 38.4507 0.8705 38.6607 0.9105 38.8607C0.9505 39.1107 1.0105 39.3707 1.0605 39.6307C1.6205 42.3507 2.7005 44.9807 4.3005 47.3607C4.5705 47.7607 4.8505 48.1507 5.1605 48.5407C5.4605 48.9207 5.7205 49.2307 5.9205 49.4607C6.0705 49.6407 6.2205 49.8007 6.3705 49.9607C6.4905 50.0907 6.6005 50.2107 6.7205 50.3307C6.7605 50.3707 6.8005 50.4107 6.8405 50.4507C7.0005 50.6107 7.1605 50.7707 7.3305 50.9307C7.4905 51.0907 7.6605 51.2407 7.8305 51.3907L28.4505 69.8407C29.0705 70.4007 30.0105 70.4007 30.6305 69.8407C37.1605 64.0307 44.2005 57.7507 51.1005 51.6007C52.4305 50.4107 53.5705 49.1007 54.5405 47.7007C54.5605 47.6707 54.5805 47.6407 54.6105 47.6107C56.8005 44.3907 58.0205 40.6907 58.3005 36.9507C58.3605 36.1107 58.3805 35.2707 58.3405 34.4307L58.3305 34.4207ZM11.0605 33.8307C11.0605 33.8307 11.0605 33.7407 11.0605 33.6907C11.0605 33.6207 11.0705 33.5407 11.0805 33.4607C11.1305 32.9007 11.2005 32.3607 11.3005 31.8507C11.3605 31.5407 11.4205 31.2407 11.4905 30.9507C11.5605 30.6707 11.6305 30.3907 11.7105 30.1307C11.7405 30.0207 11.7705 29.9107 11.8105 29.8107C11.8305 29.7207 11.8605 29.6407 11.8905 29.5607C11.9505 29.3807 12.0105 29.2007 12.0705 29.0307C12.2405 28.5807 12.4005 28.1807 12.5605 27.8307C13.3205 26.1607 14.3505 24.6207 15.6605 23.3007C18.3605 20.5807 21.0305 17.8907 23.2805 15.6107C25.7605 13.1107 27.7505 11.1107 28.7505 10.1107C28.7905 10.0607 28.8405 10.0207 28.8905 9.99071C28.9305 9.96071 28.9805 9.93071 29.0205 9.91071C29.0405 9.90071 29.0605 9.89071 29.0705 9.88071C29.1105 9.86071 29.1505 9.84071 29.1905 9.83071C29.2405 9.82071 29.3005 9.81071 29.3505 9.80071C29.4705 9.80071 29.6005 9.80071 29.7205 9.85071C29.8305 9.89071 29.9305 9.94071 30.0305 10.0207C30.0605 10.0507 30.0905 10.0707 30.1205 10.1107L39.7005 19.8507C41.5205 21.7007 43.6205 23.5307 45.1205 25.7207C45.1305 25.7407 45.1505 25.7607 45.1605 25.7807C45.2005 25.8307 45.2305 25.8907 45.2705 25.9507C45.4705 26.2507 45.6605 26.5507 45.8305 26.8707C45.9405 27.0607 46.0305 27.2607 46.1105 27.4707C46.1105 27.4707 46.1105 27.4907 46.1205 27.5007C46.9305 29.5207 46.6705 32.1507 44.1705 32.6307C43.1805 32.8207 42.2505 32.5507 41.5605 31.9807C41.3905 31.8407 41.2305 31.6707 41.0905 31.5007C39.9105 30.3007 38.6805 29.1007 37.4205 27.8907C35.3405 25.9007 33.2605 24.0107 31.2105 22.2107C30.6105 21.6807 29.7805 21.5107 29.0205 21.7507C24.5605 23.1307 20.0105 25.3907 15.9005 29.0107C14.1005 30.5907 12.5805 32.2707 11.2905 33.9507C11.1805 34.0907 11.0705 34.2307 10.9805 34.3607C10.9805 34.1807 11.0005 33.9907 11.0105 33.8107L11.0605 33.8307ZM38.8505 37.7207C36.7205 40.7007 33.3605 44.0007 30.5705 45.9807C29.9305 46.4307 28.9805 46.4307 28.3405 45.9807C25.5505 44.0007 22.1905 40.7107 20.0605 37.7207C19.0705 36.2607 19.0705 34.2307 20.0605 32.7807C22.1905 29.7907 25.5505 26.5007 28.3405 24.5207C28.9705 24.0707 29.9305 24.0707 30.5705 24.5207C33.3605 26.5007 36.7205 29.7907 38.8505 32.7807C39.8505 34.2307 39.8505 36.2707 38.8505 37.7207ZM47.6605 38.4707C47.6305 38.6507 47.6005 38.8307 47.5605 38.9907C47.5105 39.2207 47.4605 39.4407 47.4005 39.6507C47.3705 39.7807 47.3305 39.9107 47.3005 40.0307C47.3005 40.0507 47.2905 40.0807 47.2805 40.1007C47.2505 40.2207 47.2105 40.3307 47.1805 40.4407C46.9905 41.0607 46.8005 41.5807 46.6405 41.9807C46.5705 42.1507 46.5105 42.3007 46.4505 42.4307C46.4305 42.4707 46.4105 42.5107 46.4005 42.5507C46.4005 42.5507 46.4005 42.5507 46.4005 42.5607C46.3805 42.6107 46.3605 42.6507 46.3505 42.6807C46.3005 42.7807 46.2505 42.8907 46.2005 42.9907C46.1505 43.1007 46.1005 43.2007 46.0405 43.3107C45.9705 43.4507 45.9005 43.5907 45.8205 43.7307C45.6405 44.0607 45.4505 44.3707 45.2605 44.6607C45.1705 44.8007 45.0705 44.9507 44.9705 45.0907C44.8805 45.2307 44.7905 45.3607 44.6805 45.4907C44.5905 45.6207 44.4905 45.7507 44.3905 45.8707C44.3005 45.9907 44.2005 46.1107 44.1105 46.2207C43.3605 47.1407 42.6605 47.8007 42.1905 48.2507C42.1705 48.2607 42.1605 48.2807 42.1405 48.3007C40.1405 50.3307 38.1205 52.3607 36.1405 54.3707C34.1205 56.4107 32.1405 58.4207 30.2205 60.3607C30.1505 60.4307 30.0705 60.5007 29.9905 60.5407C29.8805 60.6107 29.7605 60.6407 29.6405 60.6607C29.4505 60.6907 29.2605 60.6607 29.0905 60.5607C29.0005 60.5107 28.9105 60.4507 28.8305 60.3707C26.3405 57.8607 23.9105 55.2707 21.3905 52.7807C19.9105 51.3207 18.2705 49.9107 16.7805 48.3907C16.7505 48.3607 16.7305 48.3407 16.7005 48.3107C16.3605 47.9807 16.0005 47.6007 15.6305 47.1607C15.5105 47.0307 15.4005 46.8907 15.2805 46.7507C15.2205 46.6707 15.1605 46.5907 15.0905 46.5107C14.8505 46.2207 14.6205 45.9207 14.4005 45.6207C14.1705 45.3007 13.9505 44.9607 13.7705 44.6007C13.7705 44.5907 13.7505 44.5707 13.7505 44.5607C13.6405 44.3307 13.5505 44.1007 13.4905 43.8607C13.0605 42.1707 14.2905 40.3407 15.9505 40.0107C16.8705 39.8307 17.7505 40.0607 18.4205 40.5507C18.5905 40.6707 18.7505 40.8107 18.8905 40.9607C18.8905 40.9607 18.9005 40.9607 18.9005 40.9707C20.8005 42.6307 22.7805 44.3007 24.8405 45.9607C26.0005 46.8907 27.1505 47.8007 28.2905 48.6807C28.9205 49.1607 29.7305 49.2807 30.4605 49.0207C33.0805 48.0607 36.0605 46.7207 39.1705 44.8207C42.5405 42.7507 45.3105 40.4907 47.5505 38.3407C47.6105 38.2907 47.6605 38.2307 47.7205 38.1807C47.7005 38.2807 47.6805 38.3907 47.6705 38.4907L47.6605 38.4707Z" fill="white"/>
<path d="M58.3323 34.4208C57.7423 32.9408 56.7323 30.7308 55.0123 28.3608C53.3823 26.1008 51.8523 24.7008 49.9823 23.0308C49.9823 23.0308 38.1023 14.2908 29.7523 9.87077C29.5723 9.78077 29.3823 9.82077 29.3823 9.82077C29.1623 9.84077 28.9423 9.94077 28.7623 10.1108C27.7623 11.1108 25.7723 13.1108 23.2923 15.6108C21.0323 17.8908 18.3723 20.5708 15.6723 23.3008C14.3623 24.6208 13.3223 26.1608 12.5723 27.8308C12.4123 28.1708 12.2523 28.5708 12.0823 29.0308C12.0223 29.2008 11.9623 29.3708 11.9023 29.5608C11.8723 29.6408 11.8423 29.7308 11.8223 29.8108C11.7823 29.9108 11.7523 30.0208 11.7223 30.1308C11.6423 30.3908 11.5723 30.6708 11.5023 30.9508C11.4323 31.2408 11.3723 31.5408 11.3123 31.8508C11.2123 32.3608 11.1423 32.8908 11.0923 33.4608C11.0923 33.5408 11.0723 33.6108 11.0723 33.6908C11.0723 33.7408 11.0723 33.7808 11.0723 33.8308C11.0623 34.0108 11.0523 34.1908 11.0423 34.3808C11.0123 35.1208 10.9223 38.6608 12.7723 42.6908C13.0823 43.3608 13.4023 43.9808 13.7523 44.5408C13.7523 44.5508 13.7623 44.5708 13.7723 44.5808C13.9423 44.9408 14.1623 45.2808 14.4023 45.6008C14.6223 45.9108 14.8523 46.2008 15.0923 46.4908C15.1623 46.5708 15.2223 46.6508 15.2823 46.7308C15.4023 46.8708 15.5223 47.0108 15.6323 47.1408C16.0023 47.5808 16.3623 47.9608 16.7023 48.2908C16.7323 48.3208 16.7523 48.3408 16.7823 48.3708C18.2723 49.8908 19.9123 51.3008 21.3923 52.7608C23.9023 55.2508 26.3323 57.8408 28.8323 60.3508C28.9123 60.4308 29.0023 60.4908 29.0923 60.5408C21.9423 58.6708 16.9923 55.5508 14.1323 53.4108C10.3723 50.6208 0.162263 43.0008 0.662263 33.2908C0.862263 29.3808 2.77226 25.5708 2.96226 25.2108C3.81226 23.5408 4.74226 21.6108 7.90226 18.8108C11.0023 16.0508 14.0823 13.3208 16.8923 10.8308C22.1123 6.19077 26.4323 2.36077 28.3723 0.640772C29.0023 0.0907715 29.9323 0.0907715 30.5523 0.640772L51.1223 19.0408C52.4123 20.1508 54.1423 21.9108 55.5923 24.4708C57.8923 28.5208 58.2723 32.3808 58.3323 34.4108V34.4208Z" fill="white"/>
<path d="M51.1017 51.6008C39.6317 63.2108 35.8617 65.2008 30.6317 69.8408C30.0017 70.3908 29.0717 70.3908 28.4517 69.8408L7.83175 51.3808C7.34175 50.9508 6.66175 50.3008 5.93175 49.4508C5.02175 48.4008 2.86175 45.7008 1.58175 41.5608C0.701749 38.7508 0.531749 36.2308 0.571749 34.3708C0.681749 35.3308 0.911749 36.7808 1.46175 38.4508C3.00175 43.1808 5.88175 46.1508 8.34175 48.6408C9.29175 49.6008 11.7417 51.9708 15.6017 54.4808C18.5217 56.3708 23.0217 58.8408 29.0717 60.5508C29.2417 60.6408 29.4317 60.6808 29.6217 60.6508C29.7417 60.6408 29.8617 60.6008 29.9717 60.5308C30.0517 60.4908 30.1317 60.4308 30.2117 60.3508C32.1317 58.4108 34.1118 56.4008 36.1318 54.3608C38.1118 52.3508 40.1318 50.3208 42.1318 48.2908C42.1518 48.2808 42.1618 48.2608 42.1818 48.2408C42.6518 47.7908 43.3518 47.1308 44.1118 46.2108C44.2118 46.1008 44.3018 45.9808 44.3918 45.8608C44.4917 45.7408 44.5918 45.6108 44.6818 45.4808C44.7918 45.3508 44.8818 45.2108 44.9718 45.0808C45.0718 44.9408 45.1717 44.8008 45.2617 44.6508C45.4517 44.3608 45.6418 44.0508 45.8218 43.7208C45.9018 43.5808 45.9718 43.4408 46.0418 43.3008C46.1018 43.2008 46.1518 43.0908 46.2018 42.9808C46.2518 42.8808 46.3018 42.7808 46.3517 42.6708C46.3717 42.6308 46.3918 42.5908 46.4018 42.5508C46.4018 42.5508 46.4018 42.5508 46.4018 42.5408C46.4218 42.5008 46.4418 42.4608 46.4518 42.4208C46.5118 42.2908 46.5718 42.1408 46.6418 41.9708C46.8018 41.5708 46.9918 41.0508 47.1818 40.4308C47.2118 40.3208 47.2518 40.2108 47.2817 40.0908C47.2817 40.0708 47.2918 40.0408 47.3018 40.0208C47.3317 39.8908 47.3718 39.7708 47.4018 39.6408C47.4518 39.4308 47.5118 39.2108 47.5618 38.9808C47.6018 38.8108 47.6318 38.6408 47.6618 38.4608C47.6818 38.3608 47.7018 38.2608 47.7118 38.1508C47.9417 36.7408 48.4218 32.7108 46.5418 28.3108C46.4218 28.0208 46.2917 27.7508 46.1717 27.5008C46.1717 27.5008 46.1717 27.4808 46.1618 27.4708C46.0817 27.2608 45.9818 27.0608 45.8818 26.8708C45.7118 26.5508 45.5218 26.2508 45.3218 25.9508C45.2817 25.8908 45.2518 25.8408 45.2118 25.7808C45.2018 25.7608 45.1817 25.7408 45.1717 25.7208C43.6717 23.5308 41.5718 21.7108 39.7518 19.8508L30.1717 10.1108C31.8717 10.7608 33.9717 11.6208 36.3317 12.7508C37.5817 13.3408 39.7518 14.3908 42.4518 15.9808C45.8018 17.9608 48.6818 19.6608 51.6618 22.6808C53.3118 24.3508 54.4818 25.9008 55.2018 26.9408C55.2018 26.9408 55.3517 27.1808 55.4917 27.4208C56.4917 29.1408 58.3618 32.4308 58.3018 36.9208C58.2617 40.2708 57.1718 42.7808 56.5918 44.1108C54.9718 47.7608 52.7518 49.9208 51.1118 51.5808L51.1017 51.6008Z" fill="white"/>
<path d="M87.7514 16.9707V26.5407H73.3814V16.9707H67.6914V42.7807H73.3814V31.3207H87.7514V42.7807H93.4514V16.9707H87.7514Z" fill="white"/>
<path d="M125.691 16.9707L119.441 25.9507L113.161 16.9707H106.121L116.401 31.0107V42.7807H122.091V31.0107L132.321 16.9707H125.691Z" fill="white"/>
<path d="M164.722 32.3907C167.882 31.0107 169.942 28.4307 169.942 25.1207C169.942 23.0707 169.152 21.2107 167.802 19.7807C166.142 18.0407 163.732 16.9707 160.052 16.9707H144.992V21.7507H160.252C161.282 21.7507 162.432 21.8707 163.342 22.8507C163.932 23.4507 164.252 24.2407 164.252 25.1007C164.252 27.0807 162.632 28.5007 160.652 28.5007H145.002V42.7707H150.652V33.2907H159.082L164.292 42.7707H170.772L164.722 32.3807V32.3907Z" fill="white"/>
<path d="M198.97 16.9707H194.11L183.66 42.7807H189.62L196.42 24.8307H196.66L203.22 42.7807H209.43L198.97 16.9707Z" fill="white"/>
<path d="M87.6133 48.2107H88.7633L95.5833 56.8907V48.2107H96.7733V59.0407H95.8033L88.8033 50.1607V59.0407H87.6133V48.2107Z" fill="white"/>
<path d="M102.934 48.2107H110.764V49.3207H104.154V53.0207H110.064V54.1307H104.154V57.9207H110.844V59.0307H102.934V48.2007V48.2107Z" fill="white"/>
<path d="M119.265 49.3407H115.625V48.2107H124.135V49.3407H120.495V59.0407H119.255V49.3407H119.265Z" fill="white"/>
<path d="M128.691 48.2107H130.021L133.121 57.2307L136.091 48.1807H137.101L140.071 57.2307L143.171 48.2107H144.451L140.581 59.1207H139.541L136.571 50.3307L133.581 59.1207H132.561L128.691 48.2107Z" fill="white"/>
<path d="M149.273 53.6608V53.6308C149.273 50.6408 151.513 48.0308 154.813 48.0308C158.113 48.0308 160.323 50.6108 160.323 53.6008V53.6308C160.323 56.6208 158.083 59.2308 154.783 59.2308C151.483 59.2308 149.273 56.6508 149.273 53.6608ZM159.053 53.6608V53.6308C159.053 51.1708 157.253 49.1608 154.783 49.1608C152.313 49.1608 150.543 51.1408 150.543 53.6008V53.6308C150.543 56.0908 152.343 58.1008 154.813 58.1008C157.283 58.1008 159.053 56.1208 159.053 53.6608Z" fill="white"/>
<path d="M166.004 48.2107H170.664C172.014 48.2107 173.064 48.6107 173.744 49.2907C174.284 49.8307 174.584 50.5607 174.584 51.4307V51.4607C174.584 53.2607 173.344 54.3207 171.644 54.6207L174.974 59.0507H173.474L170.334 54.8407H167.234V59.0507H166.014V48.2207L166.004 48.2107ZM170.554 53.7307C172.164 53.7307 173.344 52.8907 173.344 51.5007V51.4707C173.344 50.1207 172.324 49.3307 170.574 49.3307H167.234V53.7307H170.564H170.554Z" fill="white"/>
<path d="M180.293 48.2107H181.513V54.6807L187.733 48.2107H189.313L184.673 52.9507L189.513 59.0507H187.983L183.823 53.8007L181.513 56.1407V59.0507H180.293V48.2207V48.2107Z" fill="white"/>
</g>
<defs>
<clipPath id="clip0_2344_54910">
<rect width="208.86" height="70.02" fill="white" transform="translate(0.570312 0.230713)"/>
</clipPath>
</defs>
</svg>
