<svg width="90" height="40" viewBox="0 0 90 40" fill="none" xmlns="http://www.w3.org/2000/svg">
<path d="M19.9394 19.875V26.9456C18.8154 28.066 18.1858 28.6936 17.0618 29.814H9.96875V19.8781H19.9362L19.9394 19.875Z" fill="#67A1E7"/>
<path d="M9.96747 9.9375H0V19.8734H9.96747V9.9375Z" fill="#3481DF"/>
<path d="M9.96747 29.8125H0V39.7484H9.96747V29.8125Z" fill="#99C0EF"/>
<path d="M29.9068 0H9.96875V9.93587H29.9068V0Z" fill="#0162D7"/>
<path d="M30.3818 19.9531H31.9773V28.9944H30.3818V19.9531Z" fill="white"/>
<path d="M41.4971 19.9531V21.3507H34.737L35.6092 20.4457V28.9944H34.0137V19.9531H41.5001H41.4971ZM34.7817 23.9085H41.3006V25.3061H34.7817V23.9085Z" fill="white"/>
<path d="M44.5584 19.9531V28.2852L43.844 27.5968H50.6785V28.9944H42.9629V19.9531H44.5584Z" fill="white"/>
<path d="M52.9012 25.1171C52.9012 25.6542 53.0113 26.123 53.2286 26.5147C53.4459 26.9093 53.7585 27.212 54.1663 27.4256C54.5741 27.6393 55.0593 27.7461 55.6249 27.7461C56.1904 27.7461 56.6846 27.6393 57.0894 27.4256C57.4913 27.212 57.8038 26.9093 58.0211 26.5147C58.2384 26.12 58.3485 25.6542 58.3485 25.1171V19.957H59.9441V25.1764C59.9441 25.9717 59.7625 26.669 59.3993 27.2684C59.0362 27.8678 58.5331 28.3336 57.8872 28.666C57.2412 28.9983 56.4881 29.1674 55.6249 29.1674C54.7616 29.1674 54.0174 29.0013 53.3685 28.666C52.7196 28.3336 52.2136 27.8648 51.8504 27.2684C51.4872 26.669 51.3057 25.9717 51.3057 25.1764V19.957H52.9012V25.1171Z" fill="white"/>
<path d="M66.2675 24.7393V23.8224L70.5004 28.9944H68.5298L65.2644 24.8936H65.9669L62.6895 28.9944H60.7666L65.0114 23.8462V24.7156L61.0672 19.9531H63.0497L66.0383 23.68H65.312L68.2768 19.9531H70.1998L66.2675 24.7393Z" fill="white"/>
<path d="M39.4644 35.8989C39.4555 36.4627 39.3483 36.9909 39.137 37.4834C38.9286 37.979 38.6279 38.4152 38.241 38.792C37.854 39.1688 37.3837 39.4656 36.833 39.6792C36.2793 39.8929 35.6483 39.9997 34.9398 39.9997C34.2314 39.9997 33.5556 39.8899 32.9454 39.6733C32.3322 39.4567 31.7994 39.1451 31.344 38.7386C30.8885 38.3321 30.5343 37.8395 30.2842 37.2609C30.0342 36.6823 29.9092 36.0324 29.9092 35.3084C29.9092 34.5844 30.0372 33.9346 30.2902 33.356C30.5432 32.7774 30.9004 32.2848 31.3618 31.8783C31.8202 31.4718 32.362 31.1602 32.9811 30.9436C33.6033 30.727 34.282 30.6172 35.0261 30.6172C35.9519 30.6172 36.7645 30.7685 37.4641 31.0682C38.1606 31.3709 38.7232 31.7804 39.1518 32.3026C39.5805 32.8248 39.8424 33.4242 39.9377 34.0978H38.3184C38.2291 33.6705 38.0386 33.3026 37.7439 32.988C37.4492 32.6735 37.0711 32.4332 36.6127 32.264C36.1543 32.0949 35.6215 32.0118 35.0172 32.0118C34.3087 32.0118 33.6926 32.1424 33.1716 32.4035C32.6507 32.6646 32.2489 33.0414 31.9631 33.531C31.6773 34.0206 31.5345 34.6111 31.5345 35.3025C31.5345 35.9939 31.6803 36.5873 31.975 37.0858C32.2697 37.5843 32.6864 37.9671 33.2282 38.2312C33.767 38.4953 34.404 38.6288 35.1392 38.6288C35.8745 38.6288 36.4698 38.5071 37.0027 38.2668C37.5355 38.0264 37.9552 37.6911 38.2618 37.2609C38.5684 36.8306 38.7321 36.3292 38.7589 35.7595L39.4733 35.893L39.4644 35.8989ZM35.4488 36.5873V35.3826H40.0329V39.8305H38.8482L38.6547 36.0799L39.0298 36.5873H35.4488Z" fill="white"/>
<path d="M43.4217 30.7891V39.1211L42.7073 38.4327H49.5418V39.8303H41.8262V30.7891H43.4217Z" fill="white"/>
<path d="M54.9347 39.9997C53.9018 39.9997 52.9968 39.8038 52.214 39.4092C51.4311 39.0145 50.8238 38.4656 50.3863 37.7624C49.9517 37.0591 49.7344 36.2402 49.7344 35.3084C49.7344 34.3767 49.9517 33.5577 50.3863 32.8545C50.8209 32.1513 51.4311 31.6023 52.214 31.2077C52.9968 30.813 53.9018 30.6172 54.9347 30.6172C55.9676 30.6172 56.8725 30.813 57.6554 31.2077C58.4383 31.6023 59.0455 32.1513 59.4831 32.8545C59.9177 33.5577 60.135 34.3767 60.135 35.3084C60.135 36.2402 59.9177 37.0591 59.4831 37.7624C59.0485 38.4656 58.4383 39.0145 57.6554 39.4092C56.8725 39.8038 55.9646 39.9997 54.9347 39.9997ZM54.9347 38.5754C55.6669 38.5754 56.301 38.4419 56.8338 38.1778C57.3666 37.9137 57.7804 37.5339 58.0721 37.0443C58.3668 36.5547 58.5127 35.9761 58.5127 35.3084C58.5127 34.6408 58.3668 34.0622 58.0721 33.5726C57.7774 33.083 57.3637 32.7032 56.8338 32.4391C56.301 32.175 55.6699 32.0415 54.9347 32.0415C54.1994 32.0415 53.5773 32.175 53.0415 32.4391C52.5057 32.7032 52.0889 33.083 51.7943 33.5726C51.4996 34.0622 51.3537 34.6408 51.3537 35.3084C51.3537 35.9761 51.4996 36.5547 51.7943 37.0443C52.0889 37.5339 52.5027 37.9137 53.0415 38.1778C53.5773 38.4419 54.2084 38.5754 54.9347 38.5754Z" fill="white"/>
<path d="M67.1036 35.3438L67.2614 34.9937C67.9788 35.0026 68.5652 35.1094 69.0206 35.3201C69.4761 35.5278 69.8095 35.8097 70.0238 36.1628C70.2381 36.5159 70.3453 36.9135 70.3453 37.3556C70.3453 37.8393 70.2292 38.2636 70 38.6345C69.7708 39.0054 69.4344 39.2962 68.9909 39.5099C68.5473 39.7235 67.9937 39.8303 67.3328 39.8303H61.2842L61.9986 35.1895L61.2842 30.7891H67.1126C67.952 30.7891 68.5979 30.9849 69.0534 31.3736C69.5088 31.7623 69.738 32.2994 69.738 32.9819C69.738 33.3439 69.6517 33.694 69.479 34.0382C69.3064 34.3795 69.0266 34.6702 68.6456 34.9076C68.2616 35.145 67.7496 35.2904 67.1036 35.3468V35.3438ZM62.8946 39.3823L62.2784 38.5514H67.1513C67.6514 38.5514 68.0413 38.4357 68.3181 38.2072C68.595 37.9787 68.7349 37.6494 68.7349 37.2251C68.7349 36.774 68.5712 36.4269 68.2437 36.1746C67.9163 35.9254 67.4341 35.8008 66.797 35.8008H62.8648V34.5723H66.6393C67.0679 34.5723 67.4221 34.4536 67.7049 34.2163C67.9877 33.9789 68.1276 33.6406 68.1276 33.1985C68.1276 32.8691 68.0115 32.5991 67.7764 32.3854C67.5412 32.1718 67.2048 32.065 66.7613 32.065H62.2724L62.8886 31.2342L63.5286 35.1895L62.8886 39.3852L62.8946 39.3823Z" fill="white"/>
<path d="M76.8298 30.7891L81.1847 39.8303H79.4791L75.5231 31.3914H76.1392L72.1832 39.8303H70.4775L74.8325 30.7891H76.8268H76.8298ZM72.6208 37.7592V36.4447H78.9582V37.7592H72.6208Z" fill="white"/>
<path d="M83.8797 30.7891V39.1211L83.1653 38.4327H89.9998V39.8303H82.2842V30.7891H83.8797Z" fill="white"/>
</svg>
