<svg width="164" height="24" viewBox="0 0 164 24" fill="none" xmlns="http://www.w3.org/2000/svg">
<g clip-path="url(#clip0_2_10699)">
<path d="M34.3013 0.179326C33.409 -0.180943 32.3971 0.014269 31.7166 0.682435L23.366 8.87024V13.6093L32.3503 4.81205V20.3671H17.0197L15.1931 17.4628L12.2398 20.3671H12.2334L8.81616 23.7222H33.4026C34.699 23.7159 35.7642 22.6748 35.7642 21.3908V2.32666C35.7642 1.38075 35.192 0.539596 34.2997 0.179326H34.3013Z" fill="#7637BA"/>
<path d="M8.24397 20.3656L18.73 10.0717V19.2959H22.1472V7.59265C22.1472 6.64675 21.5749 5.80559 20.6827 5.44532C19.7904 5.08505 18.7785 5.28026 18.0979 5.94843L0 23.7143H7.35168L10.7689 20.3656H8.24397V20.3656Z" fill="#2C2236"/>
<path d="M100.226 12.4555C99.529 11.435 98.6351 10.6303 97.5585 10.0526C96.4819 9.47653 95.3068 9.18768 94.0589 9.18768C93.0065 9.18768 92.0286 9.37972 91.1347 9.7638C90.2408 10.1479 89.4342 10.7367 88.7375 11.4937C88.0763 12.1905 87.5623 12.984 87.2196 13.8363C86.8769 14.6885 86.7056 15.6265 86.7056 16.5994C86.7056 17.5723 86.9012 18.4849 87.2681 19.3974C87.648 20.31 88.1733 21.1147 88.8344 21.8003C89.5441 22.5335 90.3394 23.0858 91.2074 23.4461C92.0755 23.8064 93.055 23.9984 94.1074 23.9984C95.6737 23.9984 97.0558 23.5778 98.231 22.7605C99.4061 21.9431 100.336 20.7417 100.984 19.1927L101.069 18.988H97.9125L97.864 19.0594C97.4728 19.7434 96.9459 20.2846 96.2863 20.6687C95.6252 21.0417 94.8913 21.2337 94.096 21.2337C92.9823 21.2337 91.9914 20.8861 91.1848 20.2005C90.4137 19.5514 89.9126 18.6991 89.6928 17.6659H101.438V17.1247C101.438 16.1645 101.339 15.2869 101.144 14.5298C100.948 13.7855 100.643 13.0888 100.226 12.4523V12.4555ZM89.7898 15.1583C90.0953 14.1854 90.6223 13.3919 91.3561 12.8158C92.1385 12.2032 93.0696 11.8905 94.1332 11.8905C95.1969 11.8905 96.0665 12.1905 96.8133 12.792C97.51 13.357 98.024 14.1489 98.3296 15.1583H89.7898V15.1583Z" fill="#2C2236"/>
<path d="M66.3252 15.6265L64.0912 15.044C63.3961 14.8679 62.8999 14.633 62.6154 14.3473C62.339 14.0696 62.208 13.7474 62.2177 13.3506C62.2258 13.0094 62.3212 12.7237 62.5103 12.4745C62.6978 12.2269 62.9678 12.0365 63.3153 11.9064C63.6499 11.781 64.046 11.7191 64.4905 11.7207C64.5196 11.7207 64.5487 11.7207 64.5794 11.7207C66.1635 11.7286 66.5111 13.1586 66.5677 13.6982L66.5951 13.9315H69.7198C69.7198 13.4141 69.4676 12.1174 69.0311 11.4382C67.9691 9.79235 65.6156 9.21147 64.6424 9.18925C64.5842 9.18925 64.5261 9.18767 64.4679 9.18608C63.4673 9.18132 62.5637 9.34003 61.7829 9.65903C60.9488 9.99867 60.2861 10.497 59.8108 11.1398C59.334 11.7857 59.0818 12.5523 59.0608 13.4347C59.0349 14.4806 59.3566 15.363 60.0177 16.055C60.6692 16.739 61.6698 17.2564 62.9936 17.5945L65.2244 18.1627C65.9291 18.3563 66.4173 18.5864 66.6776 18.8467C66.9281 19.0975 67.0461 19.4181 67.0348 19.8418C67.0267 20.1878 66.9233 20.4751 66.7212 20.7179C66.5175 20.9623 66.225 21.1496 65.8516 21.2765C65.4943 21.3972 65.0595 21.4559 64.5568 21.4543C64.518 21.4543 64.4792 21.4543 64.4388 21.4527C63.616 21.4337 62.9775 21.248 62.5378 20.9036C62.0561 20.5258 61.8088 20.2481 61.7005 19.6894L61.6552 19.4276L58.5468 19.3546C58.5468 19.8355 58.9476 21.1305 59.3986 21.7796C59.8674 22.451 60.5302 22.989 61.3659 23.3763C62.1967 23.7619 63.2103 23.9698 64.3757 23.9968C64.4355 23.9968 64.4937 23.9984 64.5535 24C65.58 24.0048 66.5143 23.8397 67.3339 23.5096C68.2051 23.1572 68.9067 22.6478 69.4159 21.9955C69.9299 21.3368 70.1998 20.5576 70.2225 19.6656C70.2483 18.6198 69.9558 17.7659 69.3561 17.1279C68.7644 16.4978 67.7461 15.9931 66.3284 15.6265H66.3252Z" fill="#2C2236"/>
<path d="M78.4114 11.9397C79.3409 11.9397 80.1604 12.1444 80.8216 12.5396C81.494 12.9364 82.0452 13.5601 82.4736 14.3648L82.5108 14.4489H85.5691L85.5077 14.2569C84.9694 12.6587 84.0885 11.3985 82.889 10.5208C81.6896 9.63207 80.259 9.18768 78.62 9.18768C77.5806 9.18768 76.5897 9.39242 75.6715 9.7876C74.7534 10.1844 73.9225 10.7732 73.1886 11.5413C72.5275 12.2381 72.0135 13.0316 71.6708 13.8839C71.3281 14.7362 71.1567 15.6614 71.1567 16.6343C71.1567 17.6072 71.3523 18.5198 71.7193 19.4324C72.0991 20.3449 72.6245 21.1496 73.2856 21.8352C73.9823 22.5558 74.7776 23.097 75.6343 23.4572C76.5024 23.8175 77.469 23.9984 78.5343 23.9984C80.2106 23.9984 81.667 23.554 82.8405 22.6891C84.0157 21.8241 84.908 20.5275 85.4948 18.8578L85.5675 18.6531H82.4962L82.4833 18.7007C82.1034 19.5054 81.5538 20.1307 80.8685 20.5751C80.1831 21.0068 79.412 21.2353 78.5569 21.2353C77.2961 21.2353 76.2195 20.7909 75.3757 19.9132C74.519 19.0245 74.0906 17.9072 74.0906 16.5867C74.0906 15.2662 74.519 14.16 75.3515 13.2713C76.1839 12.3825 77.2104 11.9381 78.4098 11.9381L78.4114 11.9397Z" fill="#2C2236"/>
<path d="M109.31 9.32574C105.862 9.32574 103.058 12.1777 103.058 15.6836V23.7238H106.129V15.6836C106.129 13.841 107.556 12.3412 109.31 12.3412C111.064 12.3412 112.491 13.841 112.491 15.6836V23.7238H115.563V15.6836C115.563 12.1777 112.758 9.32574 109.31 9.32574V9.32574Z" fill="#2C2236"/>
<path d="M164 4.93585H160.499L156.097 11.6556L151.695 4.93585H148.194L154.346 14.3283L148.194 23.7191H151.695L156.097 16.9993L160.499 23.7191H164L157.848 14.3283L164 4.93585Z" fill="#7637BA"/>
<path d="M129.223 11.1223C128.599 10.5573 127.927 10.1256 127.204 9.82568C126.385 9.48922 125.467 9.30988 124.5 9.30988C123.411 9.30988 122.433 9.4908 121.589 9.83838C120.732 10.186 119.95 10.7398 119.227 11.4715C118.566 12.1444 118.065 12.9253 117.711 13.8013C117.355 14.679 117.186 15.6265 117.186 16.5994C117.186 18.7007 117.908 20.4798 119.314 21.8844C120.734 23.2906 122.533 23.9984 124.66 23.9984C125.578 23.9984 126.446 23.8175 127.255 23.4826C127.951 23.1826 128.612 22.7621 129.199 22.2098V23.7111H132.385V4.94855H129.225V11.1223H129.223ZM127.951 19.9878C127.033 20.9004 125.969 21.3575 124.783 21.3575C123.474 21.3575 122.349 20.9004 121.455 19.9878C120.549 19.0753 120.097 17.9341 120.097 16.601C120.097 15.2678 120.549 14.2346 121.455 13.3458C122.36 12.4571 123.461 12.0127 124.733 12.0127C126.005 12.0127 127.057 12.4809 127.963 13.4062C128.868 14.3314 129.32 15.4726 129.32 16.7692C129.333 17.9944 128.868 19.0753 127.95 19.9878H127.951Z" fill="#2C2236"/>
<path d="M47.836 4.93744L40.4536 23.7207H43.7205L46.0724 17.6691H53.0798L55.3623 23.7207H58.8053L51.4229 4.93744H47.8344H47.836ZM47.0439 15.1678L49.6287 8.51474L52.1374 15.1678H47.0439Z" fill="#2C2236"/>
<path d="M134.655 23.7223H147.097V20.9353H137.653V15.5789H144.096V13.0792H137.653V7.72278H147.097V4.93585H134.655V23.7223Z" fill="#7637BA"/>
</g>
<defs>
<clipPath id="clip0_2_10699">
<rect width="164" height="24" fill="white"/>
</clipPath>
</defs>
</svg>
