<?xml version="1.0" encoding="UTF-8"?>
<svg width="80px" height="32px" viewBox="0 0 80 32" version="1.1" xmlns="http://www.w3.org/2000/svg" xmlns:xlink="http://www.w3.org/1999/xlink">
    <title>download</title>
    <g id="黑夜" stroke="none" stroke-width="1" fill="none" fill-rule="evenodd">
        <g id="快讯" transform="translate(-130.000000, -1794.000000)" fill="#FFFFFF" fill-rule="nonzero">
            <g id="编组-36" transform="translate(0.000000, 1749.000000)">
                <g id="download" transform="translate(130.000000, 45.000000)">
                    <path d="M80.0004884,13.367663 C79.8433717,13.431105 79.7709994,13.5858031 79.6588131,13.6949197 C79.2422538,14.0930602 78.6287638,14.1031998 78.2222512,13.6949197 C77.8007617,13.2738023 77.4640166,12.7843126 77.0924808,12.3202184 C76.4215953,11.4806813 75.7581517,10.6360279 75.0922895,9.79397922 C74.9974985,9.67481612 74.9027076,9.654537 74.785498,9.7610489 C74.4438227,10.0679334 74.1021474,10.3773296 73.7554488,10.6817025 C73.6082856,10.8110982 73.5534948,10.9632846 73.5559134,11.1585409 C73.5634483,11.7267285 73.5260528,12.2999393 73.5659599,12.8655221 C73.6082856,13.4741749 72.9897723,14.0093391 72.5059571,13.9991995 C71.899909,13.98906 71.4235357,13.5173378 71.4211171,12.8655221 C71.4160938,10.7400282 71.4186054,8.61207846 71.4186054,6.48663103 C71.4186054,5.88806203 71.4135822,5.28948372 71.4235357,4.69345425 C71.4310706,4.18110872 71.7801878,3.75247504 72.2540495,3.64594453 C72.7354461,3.53688378 73.2118194,3.76769369 73.4536805,4.22169488 C73.5410296,4.38655112 73.558425,4.56155623 73.558425,4.74417996 C73.5559134,5.69275919 73.5559134,6.64134772 73.558425,7.59246649 C73.558425,7.67362949 73.5235412,7.78269954 73.6082856,7.83088571 C73.7055882,7.88668121 73.7529371,7.77509022 73.8128443,7.7243552 C75.2593597,6.46634261 76.7058751,5.20832071 78.1498789,3.95030812 C78.7136013,3.45826032 79.3744402,3.5191349 79.8358368,4.11263413 C79.8832788,4.1734994 79.9256044,4.23437398 80.003,4.25720195 C80.003,4.56155623 80.003,4.86591982 80.003,5.16774386 C79.7909994,5.28695348 79.7036504,5.52282386 79.524115,5.67754055 C78.6188103,6.45112396 77.7259708,7.24245627 76.8181545,8.01603969 C76.6484796,8.16060751 76.6385261,8.25444961 76.7782474,8.42945472 C77.4765748,9.29181047 78.162344,10.1668174 78.8532296,11.0367732 C79.2323003,11.5136116 79.5889524,12.0107292 80.0004884,12.4621722 C80.0004884,12.7615219 80.0004884,13.0632901 80.0004884,13.367663 Z" id="路径"></path>
                    <path d="M3.56850236,12.3093346 C3.56850236,15.7663669 3.56850236,19.2207946 3.56850236,22.6778269 C3.56850236,23.5706664 3.13454774,24.2605287 2.34144799,24.526855 C1.33387326,24.8666698 0.433533227,24.3341103 0.0594320625,23.3753171 C0.017033905,23.2662935 0.0295039842,23.1318746 0.0295039842,23.0075952 C0.0295039842,15.8779951 0.0394800103,8.74834858 0.0145349272,1.61619969 C0.012045892,0.954216561 0.939816412,-0.00958921647 1.59325068,0.00545070445 C2.33646193,0.0208466771 2.90260294,0.241506789 3.29915282,0.878125199 C3.50864174,1.217994 3.56850236,1.60098104 3.56850236,1.9966472 C3.56850236,5.43336316 3.56850236,8.87008843 3.56850236,12.3093346 Z" id="路径"></path>
                    <path d="M9.29731735,10.5494231 C9.29731735,13.4535237 9.28235917,16.3576243 9.30476853,19.2617249 C9.31230343,20.2330763 8.5541061,21.0142876 7.76849474,21.11066 C6.84571093,21.2247998 6.01769946,20.6338215 5.79324306,19.6827493 C5.76081507,19.5458187 5.75832204,19.4011671 5.75832204,19.2592133 C5.75582901,13.4611516 5.75582901,7.66055038 5.75582901,1.86250731 C5.75582901,1.07370525 6.08254615,0.462454344 6.79832476,0.158095408 C7.97050457,-0.339024032 9.26739169,0.388901593 9.2848522,1.69511152 C9.31974531,4.64738901 9.29482432,7.59714557 9.29731735,10.5494231 C9.29482432,10.5494231 9.29482432,10.5494231 9.29731735,10.5494231 Z" id="路径"></path>
                    <path d="M57.7901047,8.80737199 C57.8475002,11.5973328 55.5130755,14.1285952 52.550184,14.118486 C49.6596648,14.1083161 47.3377052,11.6277515 47.3402148,8.79215335 C47.3427285,5.90835045 49.7768744,3.47093942 52.6050679,3.49122785 C55.4482381,3.51405582 57.8400583,5.95400639 57.7901047,8.80737199 Z M52.5776259,5.95907617 C51.10125,5.86269452 49.7669209,7.2196283 49.7519441,8.75410673 C49.7344557,10.3520272 50.9964125,11.673426 52.5626491,11.6632864 C54.1539091,11.6531469 55.3584704,10.4281204 55.388424,8.82766042 C55.4183775,7.18412123 54.0116762,5.87030384 52.5776259,5.95907617 Z" id="形状"></path>
                    <path d="M30.0421251,28.0167246 C29.2290997,28.0167246 28.4160743,27.9888175 27.603049,28.0243525 C26.807419,28.0573758 26.3884411,27.4156067 26.3809208,26.9286287 C26.3734643,26.3224876 26.9096518,25.8076025 27.5880722,25.7949513 C28.0644455,25.7848118 28.5407258,25.7924397 29.0170992,25.7924397 C30.0720787,25.7924397 31.1295698,25.7924397 32.1845493,25.7924397 C32.8753418,25.7924397 33.2843661,25.4474155 33.2818545,24.8716931 C33.2793429,24.2984823 32.8704116,23.9636907 32.1720842,23.9636907 C30.6856617,23.9636907 29.1991462,23.9636907 27.7152353,23.9636907 C27.2164433,23.9636907 26.7824887,23.8089926 26.5231392,23.3549449 C26.1215567,22.6549431 26.645279,21.752057 27.4558858,21.7444291 C28.8200754,21.7317779 30.184358,21.7419175 31.5485477,21.7393128 C31.8602694,21.7393128 32.1620376,21.7063825 32.409015,21.4704749 C32.685853,21.2041486 32.7980393,20.8237755 32.6683645,20.4863793 C32.5262246,20.1186574 32.2593402,19.9030289 31.8678043,19.8700986 C31.7555249,19.859959 31.6433386,19.8649823 31.5310592,19.8649823 C30.2891025,19.8649823 29.0445411,19.8674939 27.8025844,19.8624707 C27.5232348,19.8624707 27.2413736,19.8447032 26.9820241,19.7154005 C26.5630462,19.5074 26.3061153,18.9925149 26.4034179,18.5588394 C26.5156043,18.0489776 26.9446286,17.650744 27.421002,17.6482323 C28.9622153,17.6406044 30.5060333,17.6254416 32.0473397,17.6533486 C33.2693894,17.6761394 34.5213926,18.7971656 34.8032538,20.0095408 C34.9927427,20.8186592 34.8854866,21.5719635 34.5064159,22.2948491 C34.4166482,22.4673147 34.4565553,22.563687 34.5737649,22.6904781 C35.9355359,24.1564354 35.7185121,26.3402551 34.087438,27.4968162 C33.6211112,27.8264915 33.0923656,28.0193292 32.5112478,28.0218409 C31.6881759,28.0167246 30.865197,28.0142129 30.0421251,28.0167246 C30.0421251,28.0167246 30.0421251,28.0142129 30.0421251,28.0167246 Z" id="路径"></path>
                    <path d="M30.0055669,13.9962228 C29.1725414,13.9962228 28.3421207,13.9987344 27.5090952,13.9962228 C26.9205355,13.9937111 26.4366273,13.549803 26.3867667,12.9765922 C26.3394177,12.413521 26.728442,11.9290546 27.322025,11.8225427 C27.4866766,11.792124 27.6562584,11.7819844 27.8233286,11.7819844 C29.2997976,11.7794728 30.7762666,11.7794728 32.2526425,11.7794728 C32.4971083,11.7794728 32.7365508,11.7642169 32.9385048,11.5867281 C33.2353428,11.3254251 33.3525524,11.0033777 33.2577614,10.6177953 C33.1580402,10.2170501 32.8961791,9.98374716 32.4895734,9.93556099 C32.3324567,9.9177935 32.1728284,9.90253765 32.0157117,9.90253765 C30.5193357,9.90002601 29.0254713,9.89751438 27.5290023,9.90253765 C27.1674199,9.90253765 26.8681633,9.77825825 26.6461162,9.49165285 C26.3867667,9.15435894 26.2870455,8.78659054 26.4865809,8.37823598 C26.7184885,7.90140683 27.112536,7.68328533 27.6187699,7.68074579 C29.0029596,7.67314577 30.3846376,7.67314577 31.7688273,7.68074579 C32.1305027,7.68328533 32.3972941,7.53871751 32.586876,7.22928414 C32.7639927,6.93506942 32.7739462,6.62817559 32.6118062,6.33396087 C32.4496663,6.03974614 32.2103168,5.84445261 31.8461298,5.84698285 C30.4619402,5.85206193 29.0802621,5.85206193 27.6961655,5.84698285 C27.1748618,5.84445261 26.7409072,5.6694475 26.4940228,5.1647113 C26.1722545,4.50526771 26.6336511,3.64799105 27.3594204,3.63531195 C28.9381222,3.60994444 30.5193357,3.58458623 32.0980375,3.64292127 C33.4123665,3.69110744 34.5521834,4.8223104 34.8239981,6.12344869 C34.9811148,6.87419484 34.8489284,7.55646639 34.5321834,8.21844952 C34.4324622,8.42389192 34.4624157,8.55325039 34.602044,8.69527867 C35.1107895,9.21522422 35.3776739,9.8493282 35.4475346,10.5721208 C35.5896745,12.0483107 34.6419511,13.5016168 33.1879008,13.8897109 C32.8487371,13.9809669 32.5095734,14.008874 32.1628748,14.0038507 C31.4446404,13.9911065 30.7263129,13.9962228 30.0055669,13.9962228 Z" id="路径"></path>
                    <path d="M11.5286813,8.79674871 C11.5286813,6.48108683 11.5337046,4.16542496 11.5261579,1.84975379 C11.5237511,1.00008645 11.8928683,0.36853968 12.6734285,0.114907388 C13.7009661,-0.219887906 14.6512011,0.173243355 14.9978997,1.34248734 C15.0552022,1.53779018 15.0627371,1.75591168 15.0627371,1.96389362 C15.0652487,6.52927301 15.0676673,11.0946338 15.0652487,15.6600411 C15.0652487,16.7379974 14.4816193,17.4456271 13.4765004,17.6054415 C12.4988234,17.7601396 11.5362162,16.9358584 11.531193,15.9162278 C11.5261579,13.5421751 11.531193,11.1682154 11.5286813,8.79674871 C11.531193,8.79674871 11.531193,8.79674871 11.5286813,8.79674871 Z" id="路径"></path>
                    <path d="M38.1550766,22.8330831 C38.1550766,21.4939168 38.1775883,20.1547505 38.1451231,18.8180959 C38.1276346,18.0926986 38.6987989,17.6285113 39.324754,17.6335858 C41.1853171,17.6513951 43.0433684,17.6387439 44.9038384,17.6412556 C45.5373284,17.6412556 46.0087715,18.0724195 46.0611438,18.6811653 C46.1059811,19.2087015 45.6770497,19.7209819 45.0959319,19.8224706 C44.9487688,19.847866 44.7990939,19.8554939 44.6495122,19.8554939 C43.2852295,19.8580056 41.9210399,19.8605172 40.5568503,19.8503776 C40.3573149,19.847866 40.2874542,19.911215 40.2924775,20.1065643 C40.2999194,20.4489838 40.3049427,20.7913103 40.2899659,21.1312182 C40.2800124,21.3772653 40.3722917,21.4660098 40.6141528,21.4634981 C41.6416903,21.4558702 42.6692279,21.4609865 43.6967655,21.4583818 C43.9611383,21.4583818 44.2204878,21.4939168 44.4674652,21.5877775 C44.8615127,21.739964 45.1134204,22.1229417 45.1183506,22.5617336 C45.1233739,23.0309441 44.8938849,23.4164335 44.4998373,23.5863874 C44.2829065,23.6777365 44.0609525,23.7334576 43.8189984,23.7309459 C42.7714607,23.7259226 41.7265278,23.7284343 40.6789901,23.7284343 C40.2999194,23.7284343 40.2924775,23.7385738 40.2924775,24.1342028 C40.2924775,24.570483 40.302431,25.0067632 40.2874542,25.4429504 C40.2775007,25.7016487 40.36978,25.7929978 40.6266179,25.7904862 C41.9909006,25.7803466 43.3550902,25.7853699 44.7192798,25.7853699 C45.0735133,25.7853699 45.4076537,25.8538352 45.68198,26.102394 C46.0261669,26.4118832 46.1409579,26.8633262 45.9837482,27.2919785 C45.8341664,27.7078866 45.4475608,27.9970966 44.9911875,28.0046315 C44.2255111,28.0147711 43.4598346,28.0097478 42.6917396,28.0097478 C41.5694111,28.0097478 40.4495942,27.9894687 39.3272657,28.0173757 C38.7013106,28.0325386 38.1201928,27.5658397 38.1400998,26.8126284 C38.1800069,25.4911366 38.1550766,24.1621098 38.1550766,22.8330831 Z" id="路径"></path>
                    <path d="M72.9305164,17.4028363 C74.1475428,17.433255 75.3072668,17.7148372 76.3123857,18.5061881 C76.7288519,18.8358633 76.8935035,19.3380972 76.7264333,19.8199589 C76.5717352,20.2688903 76.135269,20.5656353 75.6589886,20.5428446 C75.4045694,20.5301003 75.1900572,20.4185652 74.995545,20.2663787 C74.1525661,19.6145631 73.1948892,19.5257256 72.1973052,19.7058191 C71.8506066,19.7692611 71.5139545,19.9264708 71.3467913,20.2891695 C71.167256,20.6772635 71.3068842,21.0526133 71.6909783,21.2327068 C72.2147006,21.4761493 72.7833532,21.5548472 73.3345174,21.6942894 C74.1974964,21.9124295 75.0504289,22.1432208 75.7861518,22.6961525 C77.4670864,23.9618302 77.1479228,26.3864877 75.6614072,27.4238858 C74.9132192,27.9463988 74.0877287,28.1898413 73.1923775,28.2431438 C71.9104207,28.3217486 70.7307897,28.0198874 69.6658567,27.2818389 C69.4239026,27.1143966 69.2194369,26.9064891 69.0249248,26.688349 C68.6607378,26.2774642 68.6832495,25.6408114 69.0648318,25.2426708 C69.4588794,24.831786 70.1197183,24.7556928 70.5088356,25.1360659 C71.3543262,25.9604401 72.3793521,26.1075103 73.4742387,26.0060216 C73.8108908,25.975603 74.1251242,25.8386724 74.3994505,25.6281602 C74.7660561,25.3491827 74.9456844,24.6821112 74.3046595,24.3473196 C73.6886579,24.0251792 73.0227957,23.8907603 72.3569335,23.7385738 C71.7084667,23.5915037 71.0699534,23.4240614 70.4839053,23.0867582 C68.7006448,22.0621043 68.6632494,19.459772 70.2294861,18.2677688 C71.0275347,17.6640463 71.9253975,17.4079526 72.9305164,17.4028363 Z" id="路径"></path>
                    <path d="M52.7620915,17.4100786 C53.1860926,17.425348 53.6424659,17.7068371 53.8793968,18.2521409 C54.3658166,19.3707485 54.8122364,20.5095421 55.273633,21.6381963 C55.92703,23.2310376 56.5854504,24.823786 57.2288939,26.4216506 C57.5631273,27.2510481 57.019405,28.0703061 56.1863796,28.0094687 C55.772425,27.978957 55.4581916,27.7735611 55.2835865,27.3854671 C55.1239582,27.032908 54.9742834,26.6753257 54.8371667,26.3101155 C54.7698177,26.130022 54.6625616,26.0640683 54.478003,26.0665799 C53.2085113,26.0716962 51.936601,26.0716962 50.6672023,26.0665799 C50.4801321,26.0665799 50.3803179,26.1401615 50.3129688,26.3151387 C50.1832941,26.6600699 50.0361309,26.9999777 49.8890608,27.3372809 C49.6496183,27.887701 49.0659888,28.1463993 48.5198479,27.951143 C47.9936139,27.7634216 47.6743573,27.1775596 47.8713811,26.6118837 C48.1382655,25.8434166 48.464964,25.0977402 48.7717555,24.3444359 C49.5797576,22.3635935 50.3878528,20.3826581 51.1983665,18.4043273 C51.4627393,17.7525117 51.9465545,17.4075805 52.7620915,17.4100786 Z M52.5576259,23.7991321 C52.8942779,23.7991321 53.2285113,23.7991321 53.5651634,23.7991321 C53.7198615,23.7991321 53.7946524,23.7635972 53.7173498,23.580992 C53.365721,22.7339201 53.0215341,21.8842434 52.6748355,21.0370784 C52.6524168,20.9812643 52.6448819,20.8900083 52.5576259,20.9001478 C52.4977187,20.9051711 52.482835,20.9787527 52.4628349,21.0294505 C52.118648,21.8791271 51.7794843,22.7313154 51.4303671,23.5784804 C51.3579948,23.7534576 51.4153903,23.8016438 51.5774373,23.8016438 C51.9066474,23.7966205 52.233439,23.7991321 52.5576259,23.7991321 Z" id="形状"></path>
                    <path d="M60.0290873,8.86304655 C59.9467615,6.32925388 61.7948593,4.09475501 64.1616562,3.60523745 C65.8476141,3.25776677 67.3914321,3.66358179 68.7182263,4.79985453 C69.4489259,5.42632128 69.2968325,6.51440785 68.4338535,6.90246468 C67.9799918,7.10790708 67.5709675,6.96079972 67.2118037,6.65897567 C66.852733,6.35462139 66.4437087,6.14663945 65.9972889,6.0375787 C64.3162613,5.62162412 62.8298388,6.64883611 62.4731867,8.22135185 C62.1540231,9.63156019 63.0717929,11.1888666 64.4584012,11.5617048 C65.3811943,11.8102636 66.2591501,11.6580771 67.0372917,11.0722151 C67.4138508,10.7881214 67.7878983,10.529423 68.2917135,10.6816095 C68.7955288,10.8337959 69.0748784,11.1938899 69.1546925,11.70124 C69.2294834,12.1754738 69.0125526,12.5635679 68.6707843,12.8526849 C67.3963624,13.9230133 65.9348702,14.341526 64.3037961,14.016874 C62.1540231,13.5907333 60.8097405,12.2490554 60.1712272,10.1464453 C60.0390408,9.70514178 59.9866686,9.25110338 60.0290873,8.86304655 Z" id="路径"></path>
                    <path d="M63.1678862,17.8720469 C64.2977496,17.8720469 65.4300316,17.8695352 66.559802,17.8720469 C67.1358966,17.8745585 67.5299441,18.189071 67.6771073,18.7597701 C67.786875,19.1782828 67.5548744,19.6727958 67.1259431,19.9366104 C66.9014774,20.0761457 66.6445464,20.0811689 66.3926388,20.0862852 C65.8315211,20.0938201 65.2704033,20.0862852 64.7117042,20.0887969 C64.3675172,20.0887969 64.3501218,20.1065643 64.3501218,20.4641467 C64.3501218,22.6200593 64.3476102,24.7733672 64.3501218,26.9292799 C64.3501218,27.4415603 64.1031444,27.8093752 63.6691898,28.0173757 C63.2328166,28.2278879 62.7888154,28.184725 62.4047214,27.8651893 C62.0630461,27.5810955 61.9409062,27.1956061 61.9409062,26.751698 C61.9458365,24.7099252 61.9433248,22.6707571 61.9433248,20.6289843 C61.9433248,20.5427515 61.9383946,20.4591234 61.9433248,20.3728906 C61.95579,20.1648901 61.8636037,20.0836806 61.659045,20.0862852 C61.0979273,20.0913085 60.5367165,20.0887969 59.9781104,20.0862852 C59.7436912,20.0862852 59.5091789,20.0710294 59.2897365,19.9796803 C58.8258283,19.7895403 58.5614555,19.2949343 58.6513162,18.8054447 C58.7535491,18.2397688 59.1600618,17.8745585 59.7211795,17.8720469 C60.8709499,17.8669306 62.0182088,17.8720469 63.1678862,17.8720469 Z" id="路径"></path>
                    <path d="M20.8421941,8.84284185 C20.8421941,9.98160762 20.8471243,11.1204943 20.8396824,12.259288 C20.8321475,13.3093373 20.0017267,14.1285022 18.9716775,14.1133394 C18.0913031,14.1006882 17.2682312,13.304221 17.263301,12.4013349 C17.2483242,10.0095147 17.2508358,7.61779678 17.263301,5.22857193 C17.2682312,4.38397437 17.9765121,3.62053982 18.7920492,3.51908839 C19.7074004,3.40495786 20.5079606,3.94012205 20.7448915,4.81261735 C20.8122405,5.06117614 20.8446127,5.31227447 20.8446127,5.57098213 C20.8396824,6.65905939 20.8421941,7.7496855 20.8421941,8.84284185 Z" id="路径"></path>
                    <path d="M17.2545568,22.8204319 C17.2545568,21.6816382 17.2520451,20.5427515 17.2545568,19.4039579 C17.2570684,18.2651642 18.1100009,17.4560458 19.2248875,17.5271157 C20.050378,17.5803252 20.826008,18.4046994 20.8310312,19.2974459 C20.845915,21.6308474 20.8509383,23.9668535 20.8285196,26.300255 C20.8209847,27.040815 20.4868443,27.6445376 19.7959588,27.9665849 C19.1700036,28.2583066 18.5514904,28.2024925 17.9927913,27.7864914 C17.5114877,27.4289091 17.2620917,26.9292799 17.2570684,26.3230457 C17.2496265,25.1538334 17.2545568,23.9871326 17.2545568,22.8204319 Z" id="路径"></path>
                    <path d="M38.1547045,8.81962318 C38.1547045,7.47283827 38.1746115,6.12351381 38.1471696,4.77671958 C38.1321928,4.08937825 38.6809384,3.60493977 39.229591,3.61761888 C39.8406624,3.63030728 40.2895938,4.10205735 40.2895938,4.76911026 C40.2920124,6.9706416 40.2920124,9.17217294 40.2920124,11.3737043 C40.2920124,11.7795658 40.2920124,11.7744495 40.6860599,11.7744495 C42.0403891,11.7719379 43.3946252,11.7719379 44.7488613,11.7744495 C45.1204901,11.7744495 45.472119,11.8404032 45.741422,12.1447761 C46.0457019,12.4871956 46.152958,12.8701733 45.970911,13.2987326 C45.7913756,13.7223616 45.4670957,13.9886879 44.9982573,13.9886879 C43.0728569,13.9962228 41.1499681,13.9962228 39.2246608,13.9886879 C38.5911707,13.9860832 38.1547045,13.5321285 38.1547045,12.8879408 C38.1521928,11.5360303 38.1547045,10.1765849 38.1547045,8.81962318 Z" id="路径"></path>
                    <path d="M1.79070236,31.601013 C2.77967239,31.601013 3.58139542,30.785662 3.58139542,29.779892 C3.58139542,28.7741219 2.77967239,27.958864 1.79070236,27.958864 C0.801723028,27.958864 0,28.7741219 0,29.779892 C0,30.785662 0.801723028,31.601013 1.79070236,31.601013 Z" id="路径"></path>
                    <path d="M7.53384297,31.6006409 C6.5561939,31.6006409 5.76309415,30.7940342 5.76309415,29.799799 L5.76309415,26.3402551 C5.76309415,25.3460199 6.5561939,24.5395062 7.53384297,24.5395062 C8.51149204,24.5395062 9.30458248,25.3460199 9.30458248,26.3402551 L9.30458248,29.799799 C9.30458248,30.7940342 8.51149204,31.6006409 7.53384297,31.6006409 Z" id="路径"></path>
                    <path d="M13.296965,31.628548 C12.319288,31.628548 11.5261697,30.8219412 11.5261697,29.8277061 L11.5261697,22.7919667 C11.5261697,21.7977316 12.319288,20.9911248 13.296965,20.9911248 C14.274549,20.9911248 15.0676733,21.7977316 15.0676733,22.7919667 L15.0676733,29.8251944 C15.070179,30.8219412 14.2770606,31.628548 13.296965,31.628548 Z" id="路径"></path>
                </g>
            </g>
        </g>
    </g>
</svg>