<?xml version="1.0" encoding="utf-8"?>
<svg version="1.0" id="katman_1" xmlns="http://www.w3.org/2000/svg" xmlns:xlink="http://www.w3.org/1999/xlink" x="0px" y="0px" viewBox="0 0 216 135" style="enable-background:new 0 0 216 135;" xml:space="preserve">
<style type="text/css">
 .st0{clip-path:url(#SVGID_2_);}
 .st1{fill:#FDD325;}
 .st2{fill-rule:evenodd;clip-rule:evenodd;fill:#FDD325;}
</style>
<g>
 <defs>
 <rect id="SVGID_1_" x="15" y="49" width="186" height="37"/>
 </defs>
 <clipPath id="SVGID_2_">
 <use xlink:href="#SVGID_1_" style="overflow:visible;"/>
 </clipPath>
 <g class="st0">
 <path class="st1" d="M66.6,57.8h5.6c3,0,5.5,1.1,7.8,3.2c2.3,2.1,3.4,4.7,3.4,7.9c0,3.1-1.1,5.8-3.4,8c-2.2,2.3-4.8,3.4-7.9,3.4h-5.6c-1.2,0-2-0.3-2.3-0.8c-0.3-0.4-0.4-1.1-0.4-2v-17c0-0.5,0-0.8,0-1.1c0-0.3,0.1-0.5,0.3-0.8C64.5,58.1,65.3,57.8,66.6,57.8z M72.3,74.9c1.5,0,2.8-0.5,4-1.6c1.2-1.1,1.7-2.4,1.7-4.2c0-1.6-0.5-3.1-1.7-4.2c-1.2-1.1-2.6-1.7-4-1.7h-3v11.5h3V74.9z"/>
 <path class="st1" d="M92.6,80.2c-2,0-3.8-0.8-5.1-2.3c-1.3-1.6-2-3.5-2-5.8v-5.4c0-0.5,0-0.8,0-1.1c0-0.3,0.1-0.5,0.3-0.8c0.3-0.5,1.1-0.8,2.4-0.8c1.5,0,2.3,0.4,2.6,1.2c0.1,0.3,0.1,0.8,0.1,1.6v5.4c0,0.8,0.3,1.5,0.7,2c0.5,0.4,1.1,0.7,1.9,0.7c0.8,0,1.5-0.3,2-0.7c0.5-0.5,0.8-1.1,0.8-1.9v-5.4c0-0.4,0-0.8,0-1.1c0-0.3,0.1-0.5,0.3-0.8c0.3-0.5,1.1-0.8,2.4-0.8s2,0.3,2.4,0.8c0.1,0.3,0.3,0.5,0.3,0.8c0,0.3,0,0.5,0,1.1V78c0,0.4,0,0.8,0,1.1c0,0.3-0.1,0.5-0.3,0.8c-0.3,0.5-1.1,0.8-2.4,0.8c-1.2,0-2-0.3-2.3-0.7c-0.3-0.4-0.3-0.8-0.3-1.2c-0.1,0.1-0.3,0.4-0.5,0.7c-0.3,0.3-0.5,0.5-0.8,0.7C94.2,80,93.4,80.2,92.6,80.2z"/>
 <path class="st1" d="M109.1,72.2c0,0.8,0.3,1.5,0.8,2c0.5,0.4,1.2,0.7,1.7,0.7c0.7,0,1.2-0.1,1.7-0.5c0.5-0.4,1.1-0.5,1.3-0.5c0.7,0,1.3,0.5,2.3,1.6c0.4,0.5,0.7,1.1,0.7,1.6c0,0.8-0.5,1.5-1.7,2.1c-1.2,0.8-2.6,1.2-4.3,1.2c-1.9,0-3.8-0.7-5.5-2c-0.8-0.7-1.5-1.5-2-2.5c-0.5-1.1-0.8-2.3-0.8-3.6c0-1.3,0.3-2.5,0.8-3.6c0.5-1.1,1.2-2,2-2.5c1.7-1.3,3.5-2,5.4-2c0.8,0,1.5,0.1,2.3,0.4c0.7,0.3,1.3,0.4,1.6,0.7l0.5,0.3c0.4,0.3,0.7,0.4,0.8,0.5c0.5,0.4,0.8,0.9,0.8,1.3c0,0.5-0.3,1.1-0.7,1.7c-0.7,1.1-1.5,1.7-2.2,1.7c-0.4,0-0.9-0.3-1.6-0.7c-0.4-0.4-0.9-0.5-1.6-0.5c-0.7,0-1.3,0.3-1.9,0.7C109.4,70.7,109.1,71.4,109.1,72.2z"/>
 <path class="st1" d="M129.5,72.2l4,3.4c0.5,0.4,0.8,0.8,0.9,0.9c0.1,0.3,0.3,0.4,0.3,0.7c0,0.5-0.3,1.2-0.9,2c-0.7,0.8-1.3,1.3-1.9,1.3c-0.4,0-1.1-0.3-1.9-0.9l-0.3-0.3c-0.4-0.4-1.2-1.1-2.2-2c-0.9-0.9-1.7-1.6-2.3-2.1v2.4c0,0.4,0,0.8,0,1.1c0,0.3-0.1,0.5-0.3,0.8c-0.3,0.5-1.1,0.8-2.4,0.8c-1.3,0-2-0.3-2.4-0.8c-0.1-0.3-0.3-0.5-0.3-0.8c0-0.3,0-0.5,0-1.1V59.2c0-0.4,0-0.8,0-1.1s0.1-0.5,0.3-0.8c0.3-0.5,1.1-0.8,2.4-0.8c0.9,0,1.6,0.1,2.2,0.5c0.3,0.3,0.5,0.8,0.5,1.3c0,0.1,0,0.4,0,0.8v9.7c0.4-0.3,0.9-0.8,1.6-1.6c0.8-0.7,1.3-1.2,1.7-1.6l0.4-0.3c0.7-0.5,1.3-0.8,1.9-0.8c0.5,0,1.1,0.4,1.7,1.2c0.7,0.8,1.1,1.5,1.1,1.9c0,0.4-0.4,1.1-1.1,1.6L129.5,72.2z"/>
 <path class="st1" d="M139.9,57.8h5.6c3,0,5.5,1.1,7.8,3.2c2.3,2.1,3.4,4.7,3.4,7.9c0,3.1-1.1,5.8-3.4,8c-2.2,2.3-4.8,3.4-7.9,3.4h-5.6c-1.2,0-2-0.3-2.3-0.8c-0.3-0.4-0.4-1.1-0.4-2v-17c0-0.5,0-0.8,0-1.1c0-0.3,0.1-0.5,0.3-0.8C137.8,58.1,138.6,57.8,139.9,57.8z M145.6,74.9c1.5,0,2.8-0.5,4-1.6c1.2-1.1,1.7-2.4,1.7-4.2c0-1.6-0.5-3.1-1.7-4.2c-1.2-1.1-2.6-1.7-4-1.7h-3v11.5h3V74.9z"/>
 <path class="st1" d="M170.2,59.5l8.3,17c0.4,0.7,0.5,1.2,0.5,1.6c0,0.7-0.5,1.3-1.7,2c-0.7,0.4-1.2,0.5-1.6,0.5s-0.7-0.1-0.9-0.3c-0.3-0.1-0.4-0.4-0.5-0.5c-0.1-0.3-0.3-0.5-0.4-0.9l-1.6-3.4h-8.5l-1.6,3.4c-0.3,0.4-0.4,0.7-0.5,0.9c-0.1,0.1-0.3,0.4-0.5,0.5c-0.3,0.1-0.5,0.3-0.9,0.3c-0.4,0-0.9-0.1-1.6-0.5c-1.2-0.5-1.7-1.2-1.7-2c0-0.4,0.1-0.8,0.5-1.6l8.3-17.2c0.3-0.4,0.5-0.8,1.1-1.1c0.4-0.3,0.9-0.4,1.5-0.4C168.9,57.8,169.7,58.4,170.2,59.5z M167.8,66.8l-2,4.2h4L167.8,66.8z"/>
 <path class="st1" d="M189.7,57.6c3.1,0,5.6,1.1,7.9,3.2c2.3,2.1,3.4,5,3.4,8.2c0,3.2-1.1,6-3.2,8.3c-2.2,2.3-4.7,3.4-7.8,3.4c-3.1,0-5.8-1.1-7.9-3.4c-2.2-2.3-3.2-5-3.2-8c0-1.7,0.3-3.2,0.9-4.7c0.7-1.5,1.5-2.7,2.4-3.8c1.1-0.9,2.2-1.7,3.5-2.4C186.9,57.8,188.4,57.6,189.7,57.6z M184.2,69.1c0,1.9,0.5,3.4,1.7,4.4c1.2,1.1,2.6,1.7,3.9,1.7s2.8-0.5,3.9-1.6c1.2-1.1,1.7-2.5,1.7-4.4s-0.5-3.4-1.7-4.4c-1.2-1.1-2.4-1.7-3.9-1.7c-1.5,0-2.8,0.5-3.9,1.7C184.7,65.8,184.2,67.2,184.2,69.1z"/>
 <path class="st2" d="M17.7,64.7c2.3,2.8,6.2,4.6,10.6,4.6c0.8,0,1.6,0,2.4-0.1c0.7-0.1,1.2-0.5,1.3-1.2c0.1-0.7,0-1.3-0.5-1.7c-2.2-1.7-3.6-4.4-3.6-7.5c0-5.4,4.3-9.7,9.5-9.7c4.2,0,7.8,3.6,9,7.1l3.5-1.5c0.4-0.1,0.8-0.1,1.2,0.1c0.4,0.3,0.5,0.7,0.5,1.1c0,1.3-0.5,2.5-1.5,3.4c0.3,0,0.5,0.1,0.7,0.4c0.4,0.3,0.5,0.7,0.4,1.2C51,62,49.2,62.9,47,62.9c-0.4,0-0.8,0-1.1-0.1c-0.3,0.4-0.7,0.8-1.1,1.2c-0.3,0.3-0.3,0.5-0.3,0.8c0.1,0.3,0.3,0.5,0.5,0.7c9.1,3.2,12.5,20.6-10,20.6C26.6,86,15,82.1,15,71.7C15,69,16.1,66.6,17.7,64.7z M42.2,55.4c0.7,0.9,1.6,1.5,2.2,1.2c0.4-0.3,0.3-1.3-0.4-2.4c-0.7-0.9-1.6-1.5-2.2-1.2C41.4,53.4,41.5,54.5,42.2,55.4z"/>
 </g>
</g>
</svg>
