<svg xmlns="http://www.w3.org/2000/svg" width="112" height="38" fill="none"><path fill="url(#a)" fill-rule="evenodd" d="M62.725 27.413v-1.01c0-1.663-.082-2.714-.246-3.15-.182-.5-.44-.81-.777-.928a1.961 1.961 0 0 0-.696-.109c-.272 0-.509.037-.709.11-.19.072-.35.2-.477.381a2.934 2.934 0 0 0-.314.573c-.073.2-.132.482-.177.846-.055.527-.082 1.304-.082 2.332v.982c0 1.11.04 1.9.123 2.373.09.464.2.796.327.996.282.445.718.668 1.31.668.718 0 1.181-.3 1.39-.9.219-.61.328-1.664.328-3.164Zm-1.746 4.35c-1.518 0-2.655-.409-3.41-1.227-.745-.828-1.118-2.019-1.118-3.574 0-1.563.4-2.79 1.2-3.682.81-.9 1.95-1.35 3.423-1.35 1.474 0 2.583.427 3.328 1.282.755.846 1.132 2.05 1.132 3.614s-.382 2.778-1.145 3.642c-.755.863-1.891 1.295-3.41 1.295Zm41.256-3.341.996 2.946h-.969v.259h9.049v-.26h-.75V22.34h.75v-.259h-4.16v.26h.75v9.028h-1.806l-3.437-9.37h-1.118l-3.478 9.37h-.641v.259h2.086v-.26h-1.022l1.05-2.945h2.7Zm-6.719 3.341c-.39 0-.686-.113-.886-.34a1.304 1.304 0 0 1-.287-.846c0-.337.1-.619.3-.846.21-.227.5-.34.873-.34s.669.095.887.286c.218.19.327.477.327.859s-.104.682-.314.9c-.2.218-.5.327-.9.327Zm-3.378-1.159c1.054-.736 1.582-2.041 1.582-3.914 0-1.646-.437-2.823-1.31-3.533-.872-.718-2.182-1.077-3.927-1.077h-4.215v.26h.9v9.028h-.9v.259h3.86c1.7 0 3.037-.341 4.01-1.023Zm-3.792.764h-.518v-9.029h.327c.682 0 1.21.1 1.582.3.782.419 1.173 1.65 1.173 3.696v.791c0 1.528-.2 2.619-.6 3.273-.39.646-1.045.969-1.964.969ZM76.141 22.08h4.91v.3h-1.445v8.947h.49c.773 0 1.387-.237 1.842-.71.464-.472.932-1.2 1.405-2.181h.286l-.26 3.191h-7.228v-.3h.805V22.38h-.805v-.3Zm-6.297 4.719h.723c.354 0 .595.118.722.355.137.236.205.609.205 1.118v.995c0 .964.155 1.623.464 1.978.318.346.85.518 1.595.518.746 0 1.242-.132 1.487-.395.255-.264.432-.782.532-1.555l-.232-.027c-.082.482-.173.8-.273.954a.428.428 0 0 1-.382.219c-.163 0-.272-.082-.327-.246-.045-.164-.068-.482-.068-.954v-.723c0-.791-.146-1.355-.437-1.692-.29-.336-.804-.554-1.54-.654v-.041c.781-.064 1.363-.26 1.745-.587.382-.336.573-.89.573-1.663s-.218-1.337-.655-1.692c-.2-.172-.55-.318-1.05-.436-.49-.127-1.327-.191-2.51-.191h-4.118v.26h.886v9.028h-.886v.259h4.432v-.26h-.886V26.8Zm0-.26v-4.2h.45c.527 0 .91.118 1.145.355.246.227.369.7.369 1.418v.396c0 .718-.128 1.236-.382 1.555-.246.318-.628.477-1.146.477h-.436ZM49.78 24.945l-1.132 3.928-2.223-6.533h2.537l.818 2.605Zm1.828-2.605h3.668L53.64 28.79l-2.032-6.45Zm.804-.259h4.215v.26h-.9l-2.51 9.423h-1.214L49.985 25.6l-1.773 6.164h-1.187l-3.437-9.424h-.64v-.259h9.464Z" clip-rule="evenodd"/><path fill="#fff" d="m108.755 12.929 1.936-4.27h-1.377v-.217H112v.218h-.9l-2.059 4.555v4.514h.832v.26h-4.324v-.26h.832v-4.255l-2.318-4.814h-.641v-.218h4.364v.218h-.886l1.855 4.269ZM102.836 8.442l.137 3.423h-.259c-.4-1.21-.755-2.032-1.064-2.469-.309-.445-.755-.668-1.337-.668h-.163v8.974h1.159v.287h-4.978v-.287h1.16V8.728h-.178c-.582 0-1.032.232-1.35.696-.319.454-.669 1.268-1.05 2.44h-.26l.137-3.422h8.046ZM89.704 8.442h4.113V8.7h-.75v9.028h.75v.26h-4.16v-.26h.75V8.734h-.703v-.292ZM81.476 8.442h4.91v.292H84.94v8.955h.491c.773 0 1.387-.237 1.841-.71.464-.473.932-1.2 1.405-2.182h.286l-.259 3.192h-7.228v-.3h.805V8.734h-.805v-.292ZM76.684 8.442h4.137v.292h-.727v8.995h.75v.26h-4.16v-.26h.75V8.701h-.75v-.26ZM67.638 8.442h4.078c1.264 0 2.21.172 2.837.518.637.336.955.91.955 1.718 0 1.246-.75 1.992-2.25 2.237v.027c1.818.228 2.727 1.019 2.727 2.373 0 .992-.373 1.687-1.118 2.087-.746.391-1.819.587-3.219.587h-4.01v-.26h.887V8.701h-.887v-.26Zm3.546 4.719v4.568h.641c.5 0 .85-.172 1.05-.518.2-.345.3-.854.3-1.527v-.723c0-.6-.122-1.05-.368-1.35-.245-.3-.681-.45-1.309-.45h-.314Zm0-4.46v4.2h.355c.473 0 .8-.14.982-.422.19-.291.286-.732.286-1.323v-.641c0-.673-.081-1.141-.245-1.405-.164-.273-.477-.41-.941-.41h-.437Z"/><path fill="#fff" d="m63.775 17.73-.995-2.947h-2.701l-1.05 2.946h1.023v.26h-2.087v-.286h.641l3.478-9.343h1.118l3.437 9.37h1.011v.258h-4.843v-.259h.968Zm-2.291-6.82-1.282 3.573h2.468l-1.186-3.573Z"/><path fill="#fff" d="m58.684 8.442.136 3.423h-.259c-.4-1.21-.754-2.032-1.063-2.469-.31-.445-.755-.668-1.337-.668h-.164v8.974h1.975v.287h-5.794v-.287h1.16V8.728h-.178c-.581 0-1.031.232-1.35.696-.318.454-.668 1.268-1.05 2.44h-.259l.136-3.422h8.047ZM46.88 17.838a2.02 2.02 0 0 0 1.2-.368c.354-.245.532-.614.532-1.104 0-.5-.191-.883-.573-1.146-.373-.264-.91-.491-1.61-.682-.69-.2-1.195-.373-1.513-.518a4.083 4.083 0 0 1-.887-.573c-.564-.473-.846-1.205-.846-2.196 0-.81.287-1.505.86-2.087.582-.582 1.373-.873 2.373-.873.482 0 .982.073 1.5.219.527.136.855.204.982.204s.24-.09.341-.272h.15l.095 2.755h-.218c-.436-.791-.895-1.423-1.377-1.896-.473-.482-.991-.723-1.555-.723-.555 0-.987.132-1.296.395-.309.255-.463.6-.463 1.037 0 .427.181.76.545.996.373.227.828.413 1.364.559.536.145.886.245 1.05.3.173.054.382.132.627.232.255.09.46.19.614.3.164.1.332.232.505.395.182.155.323.328.423.518.245.437.368.955.368 1.555 0 .982-.31 1.773-.927 2.373-.61.591-1.414.887-2.414.887a9.117 9.117 0 0 1-1.787-.205c-.664-.136-1.032-.204-1.105-.204-.127 0-.25.136-.368.409h-.191l-.136-3.246h.231c.4.79.91 1.482 1.528 2.073.627.59 1.286.886 1.977.886Z"/><path fill="url(#b)" d="M36.77 18.528v11.027a7.936 7.936 0 0 1-2.297 5.59c-1.47 1.481-3.386 2.314-5.466 2.314V18.77c0-5.945-4.905-10.962-10.798-10.862a10.51 10.51 0 0 0-7.334 3.177c-1.938 1.986-3.09 4.77-3.091 7.556v18.824a7.47 7.47 0 0 1-2.94-.599 7.834 7.834 0 0 1-2.546-1.713 7.903 7.903 0 0 1-1.702-2.565A7.952 7.952 0 0 1 0 29.56V18.854C0 8.489 8.415-.192 18.706.004c4.818.088 9.41 2.079 12.788 5.543a18.62 18.62 0 0 1 5.276 12.981Z"/><path fill="url(#c)" d="M22.202 37.464a7.523 7.523 0 0 1-5.396-2.3 7.973 7.973 0 0 1-2.236-5.555v-8.796c2.023 0 3.962.827 5.393 2.297a7.972 7.972 0 0 1 2.239 5.548v8.806Z"/><path fill="url(#d)" d="M21.855 15.263a3.469 3.469 0 1 1-6.938 0 3.469 3.469 0 0 1 6.938 0Z"/><path fill="url(#e)" d="M2.24 30.633a7.59 7.59 0 0 0 2.472 1.732c.926.401 2.07.671 3.072.67v4.43c-1.002 0-2.147-.205-3.073-.606a7.608 7.608 0 0 1-2.477-1.729A8.008 8.008 0 0 1 .58 32.54 8.296 8.296 0 0 1 0 29.485v-4.509a8.276 8.276 0 0 0 .579 3.063c.384.971.948 1.853 1.66 2.594Z"/><path fill="url(#f)" d="M29.006 18.825c-.092-5.906-4.79-11.011-10.805-10.911-2.819.05-5.396 1.273-7.373 3.252-1.977 1.978-2.86 4.429-3.045 7.474l-.152-4.59a10.5 10.5 0 0 1 3.085-7.414 10.85 10.85 0 0 1 7.48-3.166c6.014-.1 10.937 4.903 10.937 10.819l-.127 4.536Z"/><path fill="url(#g)" d="M36.77 24.976v4.502c0 2.118-.805 4.15-2.236 5.647-1.431 1.498-3.504 2.34-5.528 2.34v-4.488c1.003 0 2.128-.208 3.055-.61a7.625 7.625 0 0 0 2.477-1.736 8.026 8.026 0 0 0 1.653-2.595c.383-.97.58-2.01.578-3.06Z"/><defs><linearGradient id="a" x1="42.133" x2="98.272" y1="22.08" y2="-1.62" gradientUnits="userSpaceOnUse"><stop stop-color="#FF2F01"/><stop offset="1" stop-color="#FFB800"/></linearGradient><linearGradient id="b" x1=".005" x2="36.77" y1="18.734" y2="18.734" gradientUnits="userSpaceOnUse"><stop stop-color="#FF4117"/><stop offset="1" stop-color="#FFC90B"/></linearGradient><linearGradient id="c" x1="14.57" x2="22.202" y1="29.136" y2="29.136" gradientUnits="userSpaceOnUse"><stop stop-color="#FF4117"/><stop offset="1" stop-color="#FFC90B"/></linearGradient><linearGradient id="d" x1="14.917" x2="21.855" y1="15.263" y2="15.263" gradientUnits="userSpaceOnUse"><stop stop-color="#FF4117"/><stop offset="1" stop-color="#FFC90B"/></linearGradient><linearGradient id="e" x1=".005" x2="7.636" y1="31.225" y2="31.225" gradientUnits="userSpaceOnUse"><stop stop-color="#FF4117"/><stop offset="1" stop-color="#FFC90B"/></linearGradient><linearGradient id="f" x1="32.589" x2="10.962" y1="7.484" y2="15.73" gradientUnits="userSpaceOnUse"><stop stop-color="#FF4117"/><stop offset="1" stop-color="#FFC90B"/></linearGradient><linearGradient id="g" x1="40.611" x2="23.881" y1="26.642" y2="37.453" gradientUnits="userSpaceOnUse"><stop stop-color="#FF4117"/><stop offset="1" stop-color="#FFC90B"/></linearGradient></defs></svg>