<svg width="150" height="32" viewBox="0 0 150 32" fill="none" xmlns="http://www.w3.org/2000/svg">
<path d="M16.163 5.43877C17.1201 5.43877 17.896 4.66285 17.896 3.70571C17.896 2.74857 17.1201 1.97266 16.163 1.97266C15.2058 1.97266 14.4299 2.74857 14.4299 3.70571C14.4299 4.66285 15.2058 5.43877 16.163 5.43877Z" fill="white"/>
<path d="M11.5959 32C7.70072 29.7514 3.91527 27.5692 0.0400084 25.3306C0.94479 25.0179 1.08783 24.3958 1.0845 23.6175C1.06454 18.5214 1.06787 13.4287 1.08117 8.33264C1.0845 7.59751 0.974728 6.96882 0.00341797 6.68607C1.77306 5.66486 3.40966 4.72349 5.19261 3.69231C5.19261 4.29771 5.19261 4.72349 5.19261 5.14927C5.19593 11.2466 5.19593 17.3505 5.19593 23.4412C5.18928 24.3726 5.43543 24.8549 6.26704 25.3206C6.94229 25.6965 7.04209 25.7331 7.55768 26.0225C7.55768 25.6033 7.56101 25.3505 7.55768 25.0545C7.55768 17.7763 7.57099 10.5979 7.55768 3.18337C7.55435 2.56798 7.69739 2.1921 8.26288 1.89605C9.36059 1.32723 10.4184 0.67526 11.5959 0V32Z" fill="#33CC99"/>
<path fill-rule="evenodd" clip-rule="evenodd" d="M23.1219 26.8208C20.1347 28.5439 17.1742 30.2536 14.1472 32V0C14.4965 0.202911 14.8391 0.402495 15.1717 0.595426C15.9601 1.0578 16.7085 1.49688 17.4803 1.89605C18.0458 2.18877 18.1888 2.56466 18.1855 3.18337C18.1755 8.12973 18.1788 12.9663 18.1821 17.7996C18.1821 20.2146 18.1855 22.6295 18.1855 25.0545C18.1821 25.2441 18.1855 25.4137 18.1855 25.6233C18.1855 25.743 18.1855 25.8728 18.1855 26.0258C18.4316 25.8894 18.5813 25.8096 18.7443 25.7231C18.9239 25.6266 19.1202 25.5235 19.4761 25.3272C20.311 24.8615 20.5539 24.3759 20.5472 23.4478V23.4312C20.5472 17.3439 20.5472 11.2466 20.5505 5.15593V3.69231C21.2923 4.12141 22.0108 4.53389 22.7227 4.94636C23.7206 5.52183 24.7052 6.09064 25.7397 6.68607C24.7684 6.97214 24.6587 7.59751 24.662 8.33264C24.6753 13.4287 24.6786 18.5214 24.6587 23.6175C24.6553 24.3958 24.7984 25.0179 25.7031 25.3306L23.1219 26.8208ZM16.6187 3.17339L16.1663 2.2553L15.714 3.17339L14.6994 3.31975L15.4312 4.03493L15.2582 5.04615L16.1663 4.57048L17.0745 5.04615L16.9015 4.03493L17.6333 3.31975L16.6187 3.17339Z" fill="url(#paint0_linear_443_693)"/>
<path d="M40.0832 17.2337C40.0832 18.1518 40.0066 18.8969 39.8503 19.4657C39.6441 20.1942 39.2715 20.8295 38.7393 21.3684C37.7846 22.3397 36.5272 22.8287 34.9671 22.8287C34.2087 22.8287 33.5069 22.7189 32.8682 22.4994C32.143 22.2499 31.5509 21.8807 31.0886 21.3884C30.5197 20.7896 30.1405 20.1476 29.9509 19.4657C29.8678 19.1563 29.8079 18.8104 29.7746 18.4245C29.7513 18.1152 29.738 17.7193 29.738 17.2337V9.08398H33.1809V17.2337C33.1809 17.5896 33.1975 17.8956 33.2341 18.1518C33.2807 18.4777 33.3605 18.7538 33.4736 18.98C33.7464 19.5322 34.232 19.8083 34.9339 19.8083C35.659 19.8083 36.1447 19.5389 36.3942 19C36.494 18.7805 36.5671 18.5077 36.6071 18.1817C36.6303 17.9455 36.6436 17.6295 36.6436 17.237V9.08731H40.0832V17.2337Z" fill="#20B486"/>
<path d="M42.1921 22.5726V19.8949C42.6378 19.6055 43.007 19.3593 43.3031 19.1564C43.6956 18.8903 44.0482 18.6341 44.3609 18.3913C45.1093 17.8159 45.758 17.2238 46.3102 16.6117C46.5364 16.3689 46.7426 16.126 46.9322 15.8832C47.1651 15.5872 47.3646 15.2978 47.5376 15.0217C47.9601 14.3265 48.1696 13.7111 48.1696 13.1722C48.1696 12.3007 47.7438 11.8649 46.8956 11.8649C46.3368 11.8649 45.931 12.0944 45.6781 12.5502C45.4885 12.8894 45.3788 13.3685 45.3488 13.9905H42.0657C42.0823 13.3385 42.1422 12.7996 42.242 12.3805C42.3617 11.8483 42.568 11.3527 42.864 10.8936C43.3031 10.2183 43.9052 9.69943 44.6702 9.33685C45.3821 9.00421 46.1638 8.83789 47.0187 8.83789C47.9434 8.83789 48.7717 9.02749 49.5002 9.4067C50.3018 9.82251 50.8873 10.4213 51.2632 11.203C51.496 11.7252 51.6091 12.2408 51.6091 12.7497C51.6091 13.445 51.4694 14.1335 51.19 14.8154C50.9472 15.4208 50.5912 16.0329 50.1222 16.6483C49.7364 17.1572 49.2574 17.6961 48.6819 18.2583C48.449 18.4845 48.1896 18.7273 47.9002 18.9867C47.6973 19.1764 47.4411 19.4059 47.1251 19.672H51.6989V22.5726H42.1921Z" fill="#20B486"/>
<path d="M64.0531 17.2337C64.0531 18.1518 63.9766 18.8969 63.8203 19.4657C63.614 20.1942 63.2415 20.8295 62.7093 21.3684C61.7546 22.3397 60.4972 22.8287 58.9371 22.8287C58.1787 22.8287 57.4768 22.7189 56.8382 22.4994C56.113 22.2499 55.5209 21.8807 55.0585 21.3884C54.4897 20.7896 54.1105 20.1476 53.9209 19.4657C53.8377 19.1563 53.7779 18.8104 53.7446 18.4245C53.7213 18.1152 53.708 17.7193 53.708 17.2337V9.08398H57.1475V17.2337C57.1475 17.5896 57.1641 17.8956 57.2007 18.1518C57.2473 18.4777 57.3271 18.7538 57.4402 18.98C57.713 19.5322 58.1987 19.8083 58.9005 19.8083C59.6257 19.8083 60.1113 19.5389 60.3608 19C60.4606 18.7805 60.5338 18.5077 60.5737 18.1817C60.597 17.9455 60.6103 17.6295 60.6103 17.237V9.08731H64.0531V17.2337Z" fill="#20B486"/>
<path d="M80.459 22.5725L75.3264 14.3696L75.2832 14.3863L75.3796 22.5725H72.0798V9.08398H75.0503L80.2628 17.563L80.2994 17.5264L80.1497 9.08398H83.4495V22.5725H80.459Z" fill="#20B486"/>
<path d="M95.8005 18.4337H88.2196C88.4092 19.7077 89.1976 20.3463 90.588 20.3463C91.3132 20.3463 91.9252 20.0337 92.4309 19.4016H95.5277C95.0753 20.4528 94.43 21.2877 93.5884 21.9098C92.6936 22.5684 91.6924 22.8977 90.5913 22.8977C89.1144 22.8977 87.8537 22.3721 86.8092 21.3243C85.7581 20.2798 85.2358 19.0191 85.2358 17.5422C85.2358 16.0586 85.7481 14.7879 86.776 13.7235C87.8138 12.6424 89.0679 12.1035 90.5381 12.1035C92.0683 12.1035 93.3456 12.6424 94.3735 13.7235C95.3747 14.7846 95.877 16.0885 95.877 17.6287C95.8704 17.9247 95.8471 18.1908 95.8005 18.4337ZM92.8467 16.3979C92.5972 15.2403 91.8321 14.6615 90.5514 14.6615C89.2708 14.6615 88.5057 15.2403 88.2562 16.3979H92.8467Z" fill="#20B486"/>
<path d="M101.173 14.7522V22.5725H98.1488V14.7522H96.6553V12.457H98.1488V9.08398H101.173V12.457H102.633V14.7522H101.173Z" fill="#20B486"/>
<path d="M115.107 22.5726H112.303L110.606 16.0329H110.57L108.88 22.5726H106.069L102.972 12.457H106.106L107.619 18.7473H107.656L109.319 12.457H111.864L113.547 18.7473H113.583L115.097 12.457H118.21L115.107 22.5726Z" fill="#20B486"/>
<path d="M128.276 21.3524C127.238 22.3736 125.941 22.8826 124.387 22.8826C122.834 22.8826 121.54 22.3736 120.509 21.3524C119.464 20.3312 118.942 19.0506 118.942 17.5071C118.942 15.9603 119.464 14.6764 120.509 13.6551C121.54 12.6339 122.834 12.125 124.387 12.125C125.941 12.125 127.238 12.6339 128.276 13.6551C129.321 14.6764 129.843 15.9603 129.843 17.5071C129.843 19.0539 129.321 20.3346 128.276 21.3524ZM126.13 15.7208C125.661 15.2119 125.079 14.9558 124.387 14.9558C123.699 14.9558 123.12 15.2119 122.651 15.7208C122.195 16.2131 121.966 16.8086 121.966 17.5104C121.966 18.2057 122.195 18.8011 122.651 19.3001C123.12 19.8057 123.699 20.0551 124.387 20.0551C125.083 20.0551 125.661 19.8023 126.13 19.3001C126.586 18.8011 126.816 18.2057 126.816 17.5104C126.816 16.8119 126.586 16.2131 126.13 15.7208Z" fill="#20B486"/>
<path d="M136.931 15.1517C136.153 15.1749 135.591 15.2947 135.242 15.5076C134.779 15.7937 134.546 16.2926 134.546 17.0111V22.5729H131.523V12.4573H134.36V13.535H134.403C134.882 12.587 135.727 12.1113 136.931 12.1113V15.1517Z" fill="#20B486"/>
<path d="M143.917 16.9044L147.619 22.5725H144.193L141.329 17.706H141.292V22.5725H138.269V9.08398H141.292V16.1227H141.329L144.133 12.457H147.726L143.917 16.9044Z" fill="#20B486"/>
<defs>
<linearGradient id="paint0_linear_443_693" x1="14.1477" y1="16" x2="25.7427" y2="16" gradientUnits="userSpaceOnUse">
<stop stop-color="#07806D"/>
<stop offset="1" stop-color="#035663"/>
</linearGradient>
</defs>
</svg>
