<svg id="图层_1" data-name="图层 1" xmlns="http://www.w3.org/2000/svg" viewBox="0 0 950.68085 184.2766"><defs><style>.cls-1{fill:#e9e8e7;}</style></defs><title>Magne.AIlogo</title><path class="cls-1" d="M51.66054,37.35909c8.67746,0,11.91434,1.76557,15.73648,11.17869l30.152,70.59669a2.21913,2.21913,0,0,0,2.05983,1.32418h1.76558a1.96241,1.96241,0,0,0,2.05656-1.32418l30.0049-70.59669c3.67828-9.41312,6.76476-11.17869,15.58934-11.17869h16.32827c10.14877,0,12.941,3.82377,12.941,15.29672v77.36473a10.29425,10.29425,0,0,1-10.29425,10.29425h-8.532a2.87893,2.87893,0,0,1-3.23361-3.23525V60.30335c0-1.02992-.29426-1.47131-1.02992-1.47131h-1.32417c-1.17705,0-1.76558.29426-2.05984,1.177l-28.38646,65.89178c-4.41066,11.03155-9.266,14.41393-18.82622,14.41393h-8.3832c-9.56024,0-14.26516-3.38238-18.82622-14.41393L48.71793,60.00908a1.78432,1.78432,0,0,0-1.91271-1.177H45.481c-.87951,0-1.3209.44139-1.3209,1.47131v69.71719a10.29426,10.29426,0,0,1-10.29426,10.29425H32.54005A10.29589,10.29589,0,0,1,22.24416,130.0189V52.65581c0-11.62008,2.64836-15.29672,12.79713-15.29672Z"/><path class="cls-1" d="M259.34405,37.35909c7.64754,0,12.06146,2.20533,16.91352,11.17869l48.684,88.39463c1.02992,2.0582.58852,3.38238-1.76557,3.38238H304.4969c-1.9127,0-2.79222-.44139-3.38074-1.76557l-7.70561-14.24331a7.059,7.059,0,0,0-6.20867-3.70013H225.19335a7.059,7.059,0,0,0-6.22992,3.73971l-7.56772,14.20373c-.73566,1.32418-1.47131,1.76557-3.384,1.76557H188.74735c-2.3541,0-2.79549-1.32418-1.76557-3.38238l48.2426-88.39463c4.70492-8.97336,9.266-11.17869,15.44221-11.17869Zm9.78631,64.12621a7.059,7.059,0,0,0,6.211-10.41358L258.167,59.27343a1.92121,1.92121,0,0,0-1.76557-1.02992h-.88279a1.71589,1.71589,0,0,0-1.61517,1.02992L236.83094,91.08851a7.059,7.059,0,0,0,6.22,10.39679Z"/><path class="cls-1" d="M442.46649,37.35909c2.05983,0,3.23361,1.02992,3.23361,3.23525V55.00827c0,2.207-1.17378,3.23524-3.23361,3.23524H368.78c-15.15121,0-19.56187,4.55943-19.56187,20.1504V99.57423c0,15.58934,4.41066,20.00163,19.56187,20.00163h48.5336c5.14958,0,7.35654-2.20532,7.35654-8.82458V99.86849c0-1.47131-.58852-2.05983-1.76557-2.05983H379.80832a2.87893,2.87893,0,0,1-3.23361-3.23525V88.68816A10.29426,10.29426,0,0,1,386.869,78.39391h47.21435A11.46967,11.46967,0,0,1,445.553,89.86358v27.94835c0,16.47212-6.32336,22.50286-18.2377,22.50286H368.04439c-29.85777,0-41.18359-10.59016-41.18359-38.82949V76.18858c0-28.23933,11.32582-38.82949,41.18359-38.82949Z"/><path class="cls-1" d="M486.887,37.35909c10.59015,0,12.35573,2.20533,17.06065,8.67746l54.12784,71.77538a1.991,1.991,0,0,0,1.90943,1.02991h1.32418c.73565,0,1.17705-.44139,1.17705-1.4713V47.65334a10.29425,10.29425,0,0,1,10.29425-10.29425h1.62009A10.29589,10.29589,0,0,1,584.69634,47.655v77.36309c0,11.62008-3.97254,15.29672-13.23852,15.29672H558.36971c-10.59016,0-12.35573-2.207-16.91679-8.67746L487.18122,59.862a2.14417,2.14417,0,0,0-1.9127-1.02991h-1.32418c-.87952,0-1.17378.44139-1.17378,1.47131v76.77619c0,2.20533-1.17705,3.23525-3.23688,3.23525h-8.67747a10.29589,10.29589,0,0,1-10.29588-10.29589V52.65581c0-11.62008,3.8254-15.29672,13.09138-15.29672Z"/><path class="cls-1" d="M705.45815,37.35909c2.05983,0,3.23361,1.02992,3.23361,3.23525v7.20779a10.29425,10.29425,0,0,1-10.29425,10.29425h-57.507c-15.15122,0-19.12048,4.2668-19.12048,19.709V78.541h82.80529c2.05984,0,3.23688,1.02992,3.23688,3.23525V94.86767c0,2.20533-1.177,3.23525-3.23688,3.23525H621.77007v1.76557c0,15.44221,3.96926,19.70737,19.12048,19.70737h57.50859a10.29262,10.29262,0,0,1,10.29262,10.29262v7.21106c0,2.20533-1.17378,3.23525-3.23361,3.23525H640.74342c-29.85777,0-41.18359-10.73729-41.18359-38.82949V76.18858c0-28.0922,11.32582-38.82949,41.18359-38.82949Z"/><path class="cls-1" d="M732.08232,119.723a10.29589,10.29589,0,0,1,10.29589,10.29588v0a10.29589,10.29589,0,0,1-10.29589,10.29589H731.788a10.29589,10.29589,0,0,1-10.29589-10.29589v0A10.29589,10.29589,0,0,1,731.788,119.723Z"/><path class="cls-1" d="M822.97981,37.35909c7.64754,0,12.06147,2.20533,16.91352,11.17869l48.684,88.39463c1.02992,2.0582.58853,3.38238-1.76557,3.38238H868.13266c-1.9127,0-2.79222-.44139-3.38074-1.76557l-7.70561-14.24331a7.059,7.059,0,0,0-6.20867-3.70013H788.82911a7.059,7.059,0,0,0-6.22992,3.73971l-7.56772,14.20373c-.73566,1.32418-1.47131,1.76557-3.384,1.76557H752.38311c-2.35409,0-2.79549-1.32418-1.76557-3.38238l48.2426-88.39463c4.70492-8.97336,9.266-11.17869,15.44221-11.17869Zm9.78631,64.12621a7.059,7.059,0,0,0,6.211-10.41358L821.80276,59.27343a1.92121,1.92121,0,0,0-1.76557-1.02992h-.88279a1.71589,1.71589,0,0,0-1.61517,1.02992L800.4667,91.08851a7.059,7.059,0,0,0,6.22,10.39679Z"/><path class="cls-1" d="M909.61706,37.35909A10.29589,10.29589,0,0,1,919.91294,47.655v82.36556a10.29425,10.29425,0,0,1-10.29425,10.29425h-1.76723a10.29589,10.29589,0,0,1-10.29588-10.29589V47.65334a10.29425,10.29425,0,0,1,10.29425-10.29425Z"/></svg>